<svg width="1920" height="1080" xmlns="http://www.w3.org/2000/svg" xmlns:xlink="http://www.w3.org/1999/xlink" overflow="hidden"><defs><clipPath id="clip0"><rect x="0" y="0" width="1920" height="1080"/></clipPath></defs><g clip-path="url(#clip0)"><rect x="0" y="0" width="1920" height="1080" fill="#FFFFFF"/><path d="M15.9999 0 120 0C128.837-2.16434e-15 136 7.16344 136 16L136 32 0 32 0 16C0 7.16344 7.16341-6.49301e-15 15.9999-8.65735e-15Z" fill="#04162B" fill-rule="evenodd" transform="matrix(-6.12323e-17 -1 -1 6.12323e-17 32 169)"/><rect x="78" y="998" width="250" height="57" stroke="#359CD5" stroke-width="2" stroke-miterlimit="8" fill="#FFFFFF"/><text font-family="Arial,Arial_MSFontService,sans-serif" font-weight="400" font-size="26.6667" transform="translate(99.1666 1036)">Logo Placeholder</text><text fill="#04162B" font-family="Arial,Arial_MSFontService,sans-serif" font-weight="700" font-size="53.3333" transform="translate(75 120)">Pie Charts with Descriptions</text><path d="M1.5-2.92106e-06 1.50001 3-1.49999 3-1.5 2.92106e-06ZM1.50001 6 1.50002 9-1.49998 9-1.49999 6ZM1.50002 12 1.50003 15-1.49997 15-1.49998 12ZM1.50004 18 1.50004 21-1.49996 21-1.49996 18ZM1.50005 24 1.50005 27-1.49995 27-1.49995 24ZM1.50006 30 1.50006 33-1.49994 33-1.49994 30ZM1.50007 36 1.50008 39-1.49992 39-1.49993 36ZM1.50008 42 1.50009 45-1.49991 45-1.49992 42ZM1.50009 48 1.5001 51-1.4999 51-1.49991 48ZM-4.5 8.76318e-06C-4.5-2.48527-2.48529-4.49999-8.76318e-06-4.5 2.48527-4.5 4.49999-2.48529 4.5-8.76318e-06 4.5 2.48527 2.48529 4.49999 8.76318e-06 4.5-2.48527 4.5-4.49999 2.48529-4.5 8.76318e-06Z" fill="#04162B" transform="matrix(1 0 0 -1 285.5 693.412)"/><path d="M1.5-2.92106e-06 1.50001 3-1.49999 3-1.5 2.92106e-06ZM1.50001 6 1.50002 9-1.49998 9-1.49999 6ZM1.50002 12 1.50003 15-1.49997 15-1.49998 12ZM1.50004 18 1.50004 21-1.49996 21-1.49996 18ZM1.50005 24 1.50005 27-1.49995 27-1.49995 24ZM1.50006 30 1.50006 33-1.49994 33-1.49994 30ZM1.50007 36 1.50008 39-1.49992 39-1.49993 36ZM1.50008 42 1.50009 45-1.49991 45-1.49992 42ZM1.50009 48 1.5001 51-1.4999 51-1.49991 48ZM-4.5 8.76318e-06C-4.5-2.48527-2.48529-4.49999-8.76318e-06-4.5 2.48527-4.5 4.49999-2.48529 4.5-8.76318e-06 4.5 2.48527 2.48529 4.49999 8.76318e-06 4.5-2.48527 4.5-4.49999 2.48529-4.5 8.76318e-06Z" fill="#359CD5" transform="matrix(1 0 0 -1 730.5 693.412)"/><path d="M1.5-2.92106e-06 1.50001 3-1.49999 3-1.5 2.92106e-06ZM1.50001 6 1.50002 9-1.49998 9-1.49999 6ZM1.50002 12 1.50003 15-1.49997 15-1.49998 12ZM1.50004 18 1.50004 21-1.49996 21-1.49996 18ZM1.50005 24 1.50005 27-1.49995 27-1.49995 24ZM1.50006 30 1.50006 33-1.49994 33-1.49994 30ZM1.50007 36 1.50008 39-1.49992 39-1.49993 36ZM1.50008 42 1.50009 45-1.49991 45-1.49992 42ZM1.50009 48 1.5001 51-1.4999 51-1.49991 48ZM-4.5 8.76318e-06C-4.5-2.48527-2.48529-4.49999-8.76318e-06-4.5 2.48527-4.5 4.49999-2.48529 4.5-8.76318e-06 4.5 2.48527 2.48529 4.49999 8.76318e-06 4.5-2.48527 4.5-4.49999 2.48529-4.5 8.76318e-06Z" fill="#04162B" transform="matrix(1 0 0 -1 1195.5 693.412)"/><path d="M1.5-2.92106e-06 1.50001 3-1.49999 3-1.5 2.92106e-06ZM1.50001 6 1.50002 9-1.49998 9-1.49999 6ZM1.50002 12 1.50003 15-1.49997 15-1.49998 12ZM1.50004 18 1.50004 21-1.49996 21-1.49996 18ZM1.50005 24 1.50005 27-1.49995 27-1.49995 24ZM1.50006 30 1.50006 33-1.49994 33-1.49994 30ZM1.50007 36 1.50008 39-1.49992 39-1.49993 36ZM1.50008 42 1.50009 45-1.49991 45-1.49992 42ZM1.50009 48 1.5001 51-1.4999 51-1.49991 48ZM-4.5 8.76318e-06C-4.5-2.48527-2.48529-4.49999-8.76318e-06-4.5 2.48527-4.5 4.49999-2.48529 4.5-8.76318e-06 4.5 2.48527 2.48529 4.49999 8.76318e-06 4.5-2.48527 4.5-4.49999 2.48529-4.5 8.76318e-06Z" fill="#359CD5" transform="matrix(1 0 0 -1 1635.5 693.412)"/><g><path d="M285.067 280.82C392.984 280.82 480.467 368.304 480.467 476.22 480.467 584.137 392.984 671.621 285.067 671.621 177.15 671.621 89.6667 584.137 89.6667 476.22 89.6667 455.716 92.894 435.339 99.2302 415.838L173.565 439.991C153.556 501.572 187.257 567.714 248.838 587.722 310.419 607.731 376.56 574.03 396.569 512.449 416.578 450.869 382.877 384.727 321.296 364.718 309.596 360.916 297.37 358.98 285.067 358.98Z" fill="#04162B" fill-rule="evenodd"/></g><g><path d="M99.2303 415.838C125.389 335.329 200.415 280.82 285.067 280.82L285.067 358.98C234.276 358.98 189.26 391.686 173.565 439.991Z" fill="#DCDCDC" fill-rule="evenodd"/></g><g><path d="M735.022 276.928C842.939 276.928 930.423 364.412 930.423 472.329 930.423 580.245 842.939 667.729 735.022 667.729 627.106 667.729 539.622 580.245 539.622 472.329 539.622 409.78 569.566 351.012 620.169 314.247L666.11 377.479C613.726 415.538 602.114 488.857 640.173 541.241 678.232 593.625 751.551 605.237 803.934 567.178 856.318 529.119 867.931 455.8 829.872 403.417 807.813 373.055 772.552 355.088 735.022 355.088Z" fill="#359CD5" fill-rule="evenodd"/></g><g><path d="M620.169 314.246C653.553 289.992 693.758 276.928 735.022 276.928L735.022 355.089C710.264 355.089 686.14 362.927 666.11 377.479Z" fill="#DCDCDC" fill-rule="evenodd"/></g><g><path d="M1184.98 276.928C1292.89 276.928 1380.38 364.412 1380.38 472.329 1380.38 580.245 1292.89 667.729 1184.98 667.729 1143.71 667.729 1103.51 654.666 1070.12 630.411L1116.07 567.178C1168.45 605.237 1241.77 593.625 1279.83 541.241 1317.89 488.857 1306.27 415.539 1253.89 377.48 1233.86 362.927 1209.74 355.089 1184.98 355.089Z" fill="#04162B" fill-rule="evenodd"/></g><g><path d="M1070.12 630.411C982.818 566.979 963.464 444.782 1026.9 357.476 1063.66 306.873 1122.43 276.929 1184.98 276.929L1184.98 355.089C1120.23 355.089 1067.74 407.579 1067.74 472.329 1067.74 509.858 1085.7 545.119 1116.07 567.178Z" fill="#DCDCDC" fill-rule="evenodd"/></g><g><path d="M1634.93 276.928C1742.85 276.928 1830.33 364.412 1830.33 472.329 1830.33 580.245 1742.85 667.729 1634.93 667.729 1550.28 667.729 1475.26 613.22 1449.1 532.711L1523.43 508.558C1543.44 570.139 1609.58 603.84 1671.16 583.831 1732.74 563.822 1766.44 497.681 1746.43 436.1 1730.74 387.794 1685.72 355.089 1634.93 355.089Z" fill="#359CD5" fill-rule="evenodd"/></g><g><path d="M1449.1 532.711C1415.75 430.076 1471.92 319.84 1574.55 286.492 1594.05 280.156 1614.43 276.929 1634.93 276.929L1634.93 355.089C1570.18 355.089 1517.69 407.579 1517.69 472.329 1517.69 484.632 1519.63 496.858 1523.43 508.558Z" fill="#DCDCDC" fill-rule="evenodd"/></g><text fill="#04162B" font-family="Arial,Arial_MSFontService,sans-serif" font-weight="700" font-size="64" transform="translate(220.984 496)">8</text><text fill="#04162B" font-family="Arial,Arial_MSFontService,sans-serif" font-weight="700" font-size="64" transform="translate(256.65 496)">0</text><text fill="#04162B" font-family="Arial,Arial_MSFontService,sans-serif" font-weight="400" font-size="64" transform="translate(292.317 496)">%</text><text fill="#359CD5" font-family="Arial,Arial_MSFontService,sans-serif" font-weight="700" font-size="64" transform="translate(670.939 496)">9</text><text fill="#359CD5" font-family="Arial,Arial_MSFontService,sans-serif" font-weight="700" font-size="64" transform="translate(706.606 496)">0</text><text fill="#359CD5" font-family="Arial,Arial_MSFontService,sans-serif" font-weight="400" font-size="64" transform="translate(742.272 496)">%</text><text fill="#04162B" font-family="Arial,Arial_MSFontService,sans-serif" font-weight="700" font-size="64" transform="translate(1120.89 496)">60</text><text fill="#04162B" font-family="Arial,Arial_MSFontService,sans-serif" font-weight="400" font-size="64" transform="translate(1192.23 496)">%</text><text fill="#359CD5" font-family="Arial,Arial_MSFontService,sans-serif" font-weight="700" font-size="64" transform="translate(1570.85 496)">7</text><text fill="#359CD5" font-family="Arial,Arial_MSFontService,sans-serif" font-weight="700" font-size="64" transform="translate(1606.52 496)">0</text><text fill="#359CD5" font-family="Arial,Arial_MSFontService,sans-serif" font-weight="400" font-size="64" transform="translate(1642.18 496)">%</text><text fill="#04162B" font-family="Symbol,Symbol_MSFontService,sans-serif" font-weight="400" font-size="21.3333" transform="translate(84.9438 743)"></text><text font-family="Arial,Arial_MSFontService,sans-serif" font-weight="400" font-size="21.3333" transform="translate(115.211 743)">Lorem Ipsum is simply dummy text of</text><text font-family="Arial,Arial_MSFontService,sans-serif" font-weight="400" font-size="21.3333" transform="translate(115.211 768)">the printing and typesetting industry.</text><text font-family="Arial,Arial_MSFontService,sans-serif" font-weight="400" font-size="21.3333" transform="translate(115.211 794)">Lorem Ipsum has been the industry's</text><text font-family="Arial,Arial_MSFontService,sans-serif" font-weight="400" font-size="21.3333" transform="translate(115.211 820)">standard dummy text</text><text fill="#04162B" font-family="Symbol,Symbol_MSFontService,sans-serif" font-weight="400" font-size="21.3333" transform="translate(84.9438 853)"></text><text font-family="Arial,Arial_MSFontService,sans-serif" font-weight="400" font-size="21.3333" transform="translate(115.211 853)">Lorem Ipsum is simply dummy text of</text><text font-family="Arial,Arial_MSFontService,sans-serif" font-weight="400" font-size="21.3333" transform="translate(115.211 879)">the printing and typesetting industry.</text><text fill="#04162B" font-family="Symbol,Symbol_MSFontService,sans-serif" font-weight="400" font-size="21.3333" transform="translate(534.784 743)"></text><text font-family="Arial,Arial_MSFontService,sans-serif" font-weight="400" font-size="21.3333" transform="translate(565.051 743)">Lorem Ipsum is simply dummy text of</text><text font-family="Arial,Arial_MSFontService,sans-serif" font-weight="400" font-size="21.3333" transform="translate(565.051 768)">the printing and typesetting industry.</text><text font-family="Arial,Arial_MSFontService,sans-serif" font-weight="400" font-size="21.3333" transform="translate(565.051 794)">Lorem Ipsum has been the industry's</text><text font-family="Arial,Arial_MSFontService,sans-serif" font-weight="400" font-size="21.3333" transform="translate(565.051 820)">standard dummy text</text><text fill="#04162B" font-family="Symbol,Symbol_MSFontService,sans-serif" font-weight="400" font-size="21.3333" transform="translate(534.784 853)"></text><text font-family="Arial,Arial_MSFontService,sans-serif" font-weight="400" font-size="21.3333" transform="translate(565.051 853)">Lorem Ipsum is simply dummy text of</text><text font-family="Arial,Arial_MSFontService,sans-serif" font-weight="400" font-size="21.3333" transform="translate(565.051 879)">the printing and typesetting industry.</text><text fill="#04162B" font-family="Symbol,Symbol_MSFontService,sans-serif" font-weight="400" font-size="21.3333" transform="translate(984.625 743)"></text><text font-family="Arial,Arial_MSFontService,sans-serif" font-weight="400" font-size="21.3333" transform="translate(1014.89 743)">Lorem Ipsum is simply dummy text of</text><text font-family="Arial,Arial_MSFontService,sans-serif" font-weight="400" font-size="21.3333" transform="translate(1014.89 768)">the printing and typesetting industry.</text><text font-family="Arial,Arial_MSFontService,sans-serif" font-weight="400" font-size="21.3333" transform="translate(1014.89 794)">Lorem Ipsum has been the industry's</text><text font-family="Arial,Arial_MSFontService,sans-serif" font-weight="400" font-size="21.3333" transform="translate(1014.89 820)">standard dummy text</text><text fill="#04162B" font-family="Symbol,Symbol_MSFontService,sans-serif" font-weight="400" font-size="21.3333" transform="translate(984.625 853)"></text><text font-family="Arial,Arial_MSFontService,sans-serif" font-weight="400" font-size="21.3333" transform="translate(1014.89 853)">Lorem Ipsum is simply dummy text of</text><text font-family="Arial,Arial_MSFontService,sans-serif" font-weight="400" font-size="21.3333" transform="translate(1014.89 879)">the printing and typesetting industry.</text><text fill="#04162B" font-family="Symbol,Symbol_MSFontService,sans-serif" font-weight="400" font-size="21.3333" transform="translate(1434.47 743)"></text><text font-family="Arial,Arial_MSFontService,sans-serif" font-weight="400" font-size="21.3333" transform="translate(1464.73 743)">Lorem Ipsum is simply dummy text of</text><text font-family="Arial,Arial_MSFontService,sans-serif" font-weight="400" font-size="21.3333" transform="translate(1464.73 768)">the printing and typesetting industry.</text><text font-family="Arial,Arial_MSFontService,sans-serif" font-weight="400" font-size="21.3333" transform="translate(1464.73 794)">Lorem Ipsum has been the industry's</text><text font-family="Arial,Arial_MSFontService,sans-serif" font-weight="400" font-size="21.3333" transform="translate(1464.73 820)">standard dummy text</text><text fill="#04162B" font-family="Symbol,Symbol_MSFontService,sans-serif" font-weight="400" font-size="21.3333" transform="translate(1434.47 853)"></text><text font-family="Arial,Arial_MSFontService,sans-serif" font-weight="400" font-size="21.3333" transform="translate(1464.73 853)">Lorem Ipsum is simply dummy text of</text><text font-family="Arial,Arial_MSFontService,sans-serif" font-weight="400" font-size="21.3333" transform="translate(1464.73 879)">the printing and typesetting industry.</text><text font-family="Arial,Arial_MSFontService,sans-serif" font-weight="400" font-size="16" transform="translate(1818.5 1028)">105</text></g></svg>