<svg width="1280" height="720" xmlns="http://www.w3.org/2000/svg" xmlns:xlink="http://www.w3.org/1999/xlink" overflow="hidden"><defs><clipPath id="clip0"><rect x="0" y="0" width="1280" height="720"/></clipPath><linearGradient x1="332.344" y1="-186.944" x2="947.656" y2="906.944" gradientUnits="userSpaceOnUse" spreadMethod="reflect" id="fill1"><stop offset="0" stop-color="#FFF0CD"/><stop offset="0.0277778" stop-color="#FEF0CE"/><stop offset="0.0555556" stop-color="#FEF0D0"/><stop offset="0.0833333" stop-color="#FEF0D2"/><stop offset="0.111111" stop-color="#FEF0D4"/><stop offset="0.138889" stop-color="#FEF0D6"/><stop offset="0.166667" stop-color="#FEF0D7"/><stop offset="0.194444" stop-color="#FEF0D9"/><stop offset="0.222222" stop-color="#FEF0DA"/><stop offset="0.25" stop-color="#FEF0DC"/><stop offset="0.277778" stop-color="#FDF0DD"/><stop offset="0.305556" stop-color="#FDF0DF"/><stop offset="0.333333" stop-color="#FDF1E0"/><stop offset="0.361111" stop-color="#FDF1E2"/><stop offset="0.388889" stop-color="#FCF1E3"/><stop offset="0.416667" stop-color="#FCF1E4"/><stop offset="0.444444" stop-color="#FCF1E5"/><stop offset="0.472222" stop-color="#FBF1E6"/><stop offset="0.5" stop-color="#FBF1E7"/><stop offset="0.527778" stop-color="#FBF1E8"/><stop offset="0.555556" stop-color="#FAF1E9"/><stop offset="0.583333" stop-color="#FAF1EA"/><stop offset="0.611111" stop-color="#F9F1EB"/><stop offset="0.638889" stop-color="#F9F1EC"/><stop offset="0.666667" stop-color="#F8F1ED"/><stop offset="0.694444" stop-color="#F8F1ED"/><stop offset="0.722222" stop-color="#F7F1EE"/><stop offset="0.75" stop-color="#F7F1EF"/><stop offset="0.777778" stop-color="#F6F1EF"/><stop offset="0.805556" stop-color="#F6F1F0"/><stop offset="0.833333" stop-color="#F5F1F0"/><stop offset="0.861111" stop-color="#F5F1F1"/><stop offset="0.888889" stop-color="#F4F1F1"/><stop offset="0.916667" stop-color="#F3F1F1"/><stop offset="0.944444" stop-color="#F3F1F1"/><stop offset="0.972222" stop-color="#F2F1F1"/><stop offset="1" stop-color="#F2F2F2"/></linearGradient></defs><g clip-path="url(#clip0)"><rect x="0" y="0" width="1280" height="720" fill="url(#fill1)"/><rect x="0.500053" y="683.5" width="11" height="37" stroke="#FF8007" stroke-width="1.33333" stroke-miterlimit="8" fill="#FF8007"/><path d="M44.5001 88.5001 1235.4 88.5002" stroke="#FF3902" stroke-width="0.666667" stroke-miterlimit="8" fill="none" fill-rule="evenodd"/><rect x="1267" y="0" width="13" height="68" fill="#FF3902"/><text fill="#FF3902" font-family="Arial,Arial_MSFontService,sans-serif" font-weight="700" font-size="37.3333" transform="translate(43.9999 62)">Process</text><text fill="#FFFFFF" font-family="Arial,Arial_MSFontService,sans-serif" font-weight="400" font-size="16" transform="translate(1226.07 715)">86</text><path d="M0 129.991 147.376 0 294.752 129.991 248.56 129.991 248.56 259.982 46.1921 259.982 46.1921 129.991Z" fill="#2B4871" fill-rule="evenodd" transform="matrix(-0.700374 -0.713776 -0.713776 0.700374 1062.53 303.109)"/><path d="M0 0 203.828 0 203.828 203.829 162.75 199.688C69.8688 180.682 0 98.5003 0 0.000347956Z" fill="#05BADD" fill-rule="evenodd" transform="matrix(-0.700374 -0.713776 -0.713776 0.700374 830.783 466.256)"/><path d="M0 0 203.828 0 203.828 203.829 162.75 199.688C69.8688 180.682 0 98.5003 0 0.000347956Z" fill="#FFB404" fill-rule="evenodd" transform="matrix(0.700374 0.713776 0.713776 -0.700374 383.648 301.594)"/><path d="M0 0 203.828 0 203.828 203.829 162.75 199.688C69.8688 180.682 0 98.5003 0 0.000347956Z" fill="#FF8007" fill-rule="evenodd" transform="matrix(-0.700374 -0.713776 -0.713776 0.700374 512.344 460.877)"/><path d="M0 0 203.828 0 203.828 203.829 162.75 199.688C69.8688 180.682 0 98.5003 0 0.000347956Z" fill="#FF3902" fill-rule="evenodd" transform="matrix(0.700374 0.713776 0.713776 -0.700374 65.2091 296.214)"/><text fill="#FF3902" font-family="Arial,Arial_MSFontService,sans-serif" font-weight="700" font-size="21.3333" transform="translate(129.458 158)">Insert Text Here</text><text fill="#44546A" font-family="Arial,Arial_MSFontService,sans-serif" font-weight="400" font-size="13.3333" transform="translate(91.4975 178)">Insert your text here Insert your text here</text><text fill="#44546A" font-family="Arial,Arial_MSFontService,sans-serif" font-weight="400" font-size="13.3333" transform="translate(89.6642 196)">Insert your text here Insert your text here</text><text fill="#FFB404" font-family="Arial,Arial_MSFontService,sans-serif" font-weight="700" font-size="21.3333" transform="translate(447.897 159)">Insert Text Here</text><text fill="#44546A" font-family="Arial,Arial_MSFontService,sans-serif" font-weight="400" font-size="13.3333" transform="translate(409.937 179)">Insert your text here Insert your text here</text><text fill="#44546A" font-family="Arial,Arial_MSFontService,sans-serif" font-weight="400" font-size="13.3333" transform="translate(408.103 197)">Insert your text here Insert your text here</text><text fill="#05BADD" font-family="Arial,Arial_MSFontService,sans-serif" font-weight="700" font-size="21.3333" transform="translate(606.788 560)">Insert Text Here</text><text fill="#44546A" font-family="Arial,Arial_MSFontService,sans-serif" font-weight="400" font-size="13.3333" transform="translate(568.828 580)">Insert your text here Insert your text here</text><text fill="#44546A" font-family="Arial,Arial_MSFontService,sans-serif" font-weight="400" font-size="13.3333" transform="translate(566.994 598)">Insert your text here Insert your text here</text><text fill="#FF8007" font-family="Arial,Arial_MSFontService,sans-serif" font-weight="700" font-size="21.3333" transform="translate(288.349 560)">Insert Text Here</text><text fill="#44546A" font-family="Arial,Arial_MSFontService,sans-serif" font-weight="400" font-size="13.3333" transform="translate(250.389 580)">Insert your text here Insert your text here</text><text fill="#44546A" font-family="Arial,Arial_MSFontService,sans-serif" font-weight="400" font-size="13.3333" transform="translate(248.555 598)">Insert your text here Insert your text here</text><text fill="#2B4871" font-family="Arial,Arial_MSFontService,sans-serif" font-weight="700" font-size="21.3333" transform="translate(978.506 289)">Insert Text Here</text><text fill="#44546A" font-family="Arial,Arial_MSFontService,sans-serif" font-weight="400" font-size="13.3333" transform="translate(978.506 309)">Insert your text here Insert your text here</text><text fill="#44546A" font-family="Arial,Arial_MSFontService,sans-serif" font-weight="400" font-size="13.3333" transform="translate(978.506 327)">Insert your text here Insert your text here</text><path d="M234.758 279C184.242 279 184.242 279 184.242 279 181.383 279 179 281.5 179 284.5 179 325.5 179 325.5 179 325.5 179 328.5 181.383 331 184.242 331 199.492 331 199.492 331 199.492 331 199.016 332 197.586 333.5 197.109 334 196.156 334.5 195.68 335 195.68 335.5 195.203 336 194.727 337 195.203 338 195.68 339 196.633 340 199.016 340 219.984 340 219.984 340 219.984 340 222.367 340 223.32 339 223.797 338 224.273 337 224.273 336 223.797 335.5 223.32 335 222.844 334.5 222.367 334 221.414 333.5 220.461 332 219.508 331 234.758 331 234.758 331 234.758 331 237.617 331 240 328.5 240 325.5 240 284.5 240 284.5 240 284.5 240 281.5 237.617 279 234.758 279ZM220.938 335.5C221.414 336 221.891 336.5 221.891 337 221.891 337 222.367 337 221.891 337 221.891 337.5 220.938 338 219.984 338 199.016 338 199.016 338 199.016 338 198.062 338 197.109 337.5 197.109 337 197.109 337 197.109 337 197.109 337 197.109 337 197.109 337 197.109 337 197.109 336.5 197.586 336 198.062 335.5 199.969 333.5 201.398 332 201.875 331 217.125 331 217.125 331 217.125 331 218.078 332 219.031 333.5 220.938 335.5ZM236.188 325.5C236.188 326.5 235.711 327 234.758 327 184.242 327 184.242 327 184.242 327 183.289 327 182.812 326.5 182.812 325.5 182.812 284.5 182.812 284.5 182.812 284.5 182.812 283.5 183.289 283 184.242 283 234.758 283 234.758 283 234.758 283 235.711 283 236.188 283.5 236.188 284.5L236.188 325.5Z" fill="#FFFFFF" fill-rule="evenodd"/><path d="M228.646 287C189.354 287 189.354 287 189.354 287 187.438 287 186 288.5 186 290.5 186 315.5 186 315.5 186 315.5 186 317.5 187.438 319 189.354 319 228.646 319 228.646 319 228.646 319 230.562 319 232 317.5 232 315.5 232 290.5 232 290.5 232 290.5 232 288.5 230.562 287 228.646 287ZM230.083 315.5C230.083 316.5 229.604 317 228.646 317 189.354 317 189.354 317 189.354 317 188.396 317 187.917 316.5 187.917 315.5 187.917 290.5 187.917 290.5 187.917 290.5 187.917 289.5 188.396 289 189.354 289 228.646 289 228.646 289 228.646 289 229.604 289 230.083 289.5 230.083 290.5L230.083 315.5Z" fill="#FFFFFF" fill-rule="evenodd"/><path d="M209.5 320C208.25 320 207 321.5 207 323 207 324.5 208.25 326 209.5 326 210.75 326 212 324.5 212 323 212 321.5 210.75 320 209.5 320ZM209.5 324C209.083 324 208.667 323.5 208.667 323 208.667 322.5 209.083 322 209.5 322 209.917 322 210.333 322.5 210.333 323 210.333 323.5 209.917 324 209.5 324Z" fill="#FFFFFF" fill-rule="evenodd"/><path d="M199 304.683 207 308 207 306.244 201.462 303.707 207 301.951 207 300 199 303.317 199 304.683Z" fill="#FFFFFF" fill-rule="evenodd"/><path d="M210.5 298C210 298 210 298 209.5 298 209.5 298 209.5 298.522 209.5 299.043 207 308.435 207 308.435 207 308.435 207 308.957 207 309.478 207 309.478 207 310 207.5 310 208 310 208 310 208 310 208.5 310 208.5 310 208.5 309.478 208.5 309.478 208.5 309.478 208.5 308.957 209 308.957 211 299.565 211 299.565 211 299.565 211 299.043 211 298.522 211 298.522 211 298 211 298 211 298 211 298 210.5 298 210.5 298Z" fill="#FFFFFF" fill-rule="evenodd"/><path d="M212 301.951 217.474 303.707 212 306.244 212 308 220 304.683 220 303.317 212 300 212 301.951Z" fill="#FFFFFF" fill-rule="evenodd"/><path d="M399 440.022C399 436.26 396.336 433.573 393.188 433.573 377.93 433.573 377.93 433.573 377.93 433.573 378.414 430.885 378.656 426.855 378.656 422.824 378.656 414.493 374.781 411 370.906 411 366.062 411 366.062 416.643 366.062 423.899 366.062 429.004 358.797 437.066 355.164 440.559 354.195 440.022 353.469 439.753 352.5 439.753 342.812 439.753 342.812 439.753 342.812 439.753 339.664 439.753 337 442.709 337 446.203 338.938 465.551 338.938 465.551 338.938 465.551 339.422 469.044 341.602 472 344.75 472 352.5 472 352.5 472 352.5 472 354.922 472 357.102 470.388 358.07 467.969 361.219 469.85 361.219 469.85 361.219 469.85 361.461 469.85 361.703 469.85 361.945 469.85 387.859 469.85 387.859 469.85 387.859 469.85 390.766 469.85 393.188 467.432 393.188 463.938 393.188 463.132 392.945 462.326 392.703 461.52 394.156 460.445 395.125 458.564 395.125 456.414 395.125 455.608 394.883 454.533 394.641 453.727 396.094 452.652 397.062 450.771 397.062 448.621 397.062 447.278 396.82 446.203 396.336 445.396 398.031 444.053 399 442.172 399 440.022ZM352.5 467.7C344.75 467.7 344.75 467.7 344.75 467.7 343.781 467.7 343.055 466.357 342.812 465.282 340.875 446.203 340.875 446.203 340.875 446.203 341.117 445.128 341.844 444.053 342.812 444.053 352.5 444.053 352.5 444.053 352.5 444.053 353.711 444.053 354.438 445.128 354.438 446.203 354.438 464.207 354.438 464.207 354.438 464.207 354.438 464.476 354.438 464.745 354.438 465.013 354.438 465.551 354.438 465.551 354.438 465.551 354.438 466.894 353.711 467.7 352.5 467.7ZM387.859 465.551C362.43 465.551 362.43 465.551 362.43 465.551 358.312 463.132 358.312 463.132 358.312 463.132 358.312 446.203 358.312 446.203 358.312 446.203 358.312 445.396 358.07 444.322 357.828 443.515 361.219 440.291 369.938 431.154 369.938 423.899 369.938 419.33 369.938 415.3 370.906 415.3 372.844 415.3 374.781 417.718 374.781 422.824 374.781 429.004 373.812 435.185 373.812 435.185 373.812 435.991 374.055 436.529 374.297 437.066 374.781 437.335 375.266 437.872 375.75 437.872 393.188 437.872 393.188 437.872 393.188 437.872 394.398 437.872 395.125 438.678 395.125 440.022 395.125 441.097 394.398 442.172 393.188 442.172 391.008 442.172 391.008 442.172 391.008 442.172 390.039 442.172 389.07 442.978 389.07 444.322 389.07 445.396 390.039 446.471 391.008 446.471 391.25 446.471 391.25 446.471 391.25 446.471 391.25 446.471 391.25 446.471 391.25 446.471 392.461 446.471 393.188 447.278 393.188 448.621 393.188 449.696 392.461 450.771 391.25 450.771 390.039 450.771 390.039 450.771 390.039 450.771 390.039 450.771 389.797 450.502 389.797 450.502 389.797 450.502 389.797 450.771 389.797 450.771 389.07 450.771 389.07 450.771 389.07 450.771 388.102 450.771 387.133 451.577 387.133 452.921 387.133 453.996 388.102 455.07 389.07 455.07 389.797 455.07 389.797 455.07 389.797 455.07 390.766 455.07 391.25 455.608 391.25 456.414 391.25 457.489 390.523 458.026 389.797 458.026 387.859 458.026 387.859 458.026 387.859 458.026 387.859 458.026 387.859 458.026 387.859 458.026 387.859 458.026 387.859 458.026 387.859 458.026 386.891 458.026 385.922 459.101 385.922 460.176 385.922 461.52 386.891 462.326 387.859 462.326 388.586 462.326 389.312 463.132 389.312 463.938 389.312 465.013 388.586 465.551 387.859 465.551Z" fill="#FFFFFF" fill-rule="evenodd"/><path d="M556.518 308.935C553.251 301.305 547.704 295.754 540.005 292.459 536.181 290.836 532.179 290 527.975 290 523.77 290 519.794 290.811 515.944 292.459 508.321 295.729 502.724 301.28 499.431 308.935 497.81 312.762 497 316.767 497 320.975 497 325.182 497.81 329.213 499.431 333.04 502.724 340.695 508.321 346.271 515.944 349.541 519.794 351.189 523.77 352 527.975 352 532.179 352 536.181 351.164 540.005 349.541 547.704 346.246 553.251 340.67 556.518 333.04 558.164 329.213 559 325.182 559 320.975 559 316.767 558.164 312.762 556.518 308.935ZM517.667 295.754C515.007 299.15 513.032 303.46 511.791 308.681 503.686 308.681 503.686 308.681 503.686 308.681 506.65 302.877 511.69 298.238 517.667 295.754ZM500.774 320.975C500.774 318.009 501.23 315.17 502.141 312.407 511.031 312.407 511.031 312.407 511.031 312.407 510.6 315.297 510.398 318.161 510.398 320.975 510.398 323.738 510.6 326.576 511.031 329.441 502.091 329.441 502.091 329.441 502.091 329.441 501.204 326.703 500.774 323.839 500.774 320.975ZM503.686 333.192C511.791 333.192 511.791 333.192 511.791 333.192 513.032 338.515 515.007 342.875 517.667 346.246 511.588 343.686 506.548 339.047 503.686 333.192ZM526.075 347.944C523.872 347.285 521.82 345.663 519.946 343.027 518.097 340.365 516.654 337.07 515.666 333.192 526.075 333.192 526.075 333.192 526.075 333.192L526.075 347.944ZM526.075 329.441C514.83 329.441 514.83 329.441 514.83 329.441 514.4 326.424 514.146 323.611 514.146 320.975 514.146 318.11 514.4 315.271 514.906 312.407 526.075 312.407 526.075 312.407 526.075 312.407 526.075 329.441 526.075 329.441 526.075 329.441ZM526.075 308.681C515.666 308.681 515.666 308.681 515.666 308.681 516.73 304.828 518.173 301.558 520.022 298.948 521.896 296.312 523.872 294.664 526.075 294.056 526.075 308.681 526.075 308.681 526.075 308.681ZM552.314 308.681C544.209 308.681 544.209 308.681 544.209 308.681 542.968 303.46 540.993 299.15 538.333 295.754 544.31 298.238 549.35 302.877 552.314 308.681ZM529.925 294.056C532.128 294.664 534.104 296.312 535.978 298.948 537.852 301.558 539.27 304.828 540.334 308.681 529.925 308.681 529.925 308.681 529.925 308.681L529.925 294.056ZM529.925 312.407C541.094 312.407 541.094 312.407 541.094 312.407 541.6 315.271 541.854 318.11 541.854 320.975 541.854 323.611 541.6 326.424 541.17 329.441 529.925 329.441 529.925 329.441 529.925 329.441L529.925 312.407ZM529.925 347.944C529.925 333.192 529.925 333.192 529.925 333.192 540.334 333.192 540.334 333.192 540.334 333.192 539.296 337.07 537.852 340.365 536.029 343.027 534.154 345.688 532.154 347.336 529.925 347.944ZM538.333 346.246C540.993 342.875 542.968 338.515 544.209 333.192 552.314 333.192 552.314 333.192 552.314 333.192 549.452 339.047 544.412 343.686 538.333 346.246ZM553.909 329.441C544.969 329.441 544.969 329.441 544.969 329.441 545.4 326.576 545.602 323.738 545.602 320.975 545.602 318.161 545.4 315.297 544.969 312.407 553.859 312.407 553.859 312.407 553.859 312.407 554.77 315.17 555.226 318.009 555.226 320.975 555.226 323.839 554.796 326.703 553.909 329.441Z" fill="#FFFFFF" fill-rule="evenodd"/><path d="M712.492 448.047C713.598 446.954 714 445.353 713.522 443.853 713.02 442.353 711.788 441.285 710.229 441.057 696.781 439.074 696.781 439.074 696.781 439.074 696.505 439.048 696.278 438.871 696.153 438.642 690.145 426.288 690.145 426.288 690.145 426.288 689.441 424.89 688.058 424 686.5 424 684.942 424 683.559 424.89 682.855 426.288 676.847 438.642 676.847 438.642 676.847 438.642 676.722 438.871 676.495 439.048 676.219 439.074 662.771 441.057 662.771 441.057 662.771 441.057 661.212 441.285 659.98 442.353 659.478 443.853 659 445.353 659.402 446.954 660.508 448.047 670.261 457.656 670.261 457.656 670.261 457.656 670.437 457.859 670.538 458.113 670.488 458.393 668.2 471.941 668.2 471.941 668.2 471.941 667.924 473.492 668.552 475.043 669.809 475.958 671.066 476.898 672.7 477 674.082 476.263 686.123 469.883 686.123 469.883 686.123 469.883 686.349 469.755 686.651 469.755 686.877 469.883 698.918 476.263 698.918 476.263 698.918 476.263 699.521 476.593 700.175 476.746 700.803 476.746 701.658 476.746 702.487 476.492 703.191 475.958 704.448 475.043 705.076 473.492 704.8 471.941 702.512 458.393 702.512 458.393 702.512 458.393 702.462 458.113 702.563 457.859 702.739 457.656L712.492 448.047ZM699.32 458.952C701.607 472.501 701.607 472.501 701.607 472.501 701.683 472.958 701.406 473.212 701.281 473.314 701.155 473.39 700.828 473.594 700.426 473.365 688.385 466.959 688.385 466.959 688.385 466.959 687.807 466.654 687.154 466.502 686.5 466.502 685.846 466.502 685.193 466.654 684.615 466.959 672.574 473.365 672.574 473.365 672.574 473.365 672.172 473.594 671.845 473.39 671.719 473.314 671.594 473.212 671.317 472.958 671.393 472.501 673.68 458.952 673.68 458.952 673.68 458.952 673.906 457.605 673.479 456.258 672.524 455.317 662.771 445.708 662.771 445.708 662.771 445.708 662.444 445.378 662.519 445.022 662.569 444.87 662.62 444.717 662.771 444.361 663.223 444.31 676.697 442.328 676.697 442.328 676.697 442.328 678.029 442.124 679.16 441.285 679.763 440.091 685.771 427.737 685.771 427.737 685.771 427.737 685.972 427.33 686.349 427.279 686.5 427.279 686.651 427.279 687.028 427.33 687.229 427.737 687.229 427.737 687.229 427.737 687.229 427.737 693.262 440.091 693.262 440.091 693.262 440.091 693.84 441.285 694.971 442.124 696.303 442.328 709.777 444.31 709.777 444.31 709.777 444.31 710.229 444.361 710.38 444.717 710.431 444.87 710.481 445.022 710.556 445.378 710.229 445.708 700.476 455.317 700.476 455.317 700.476 455.317 699.521 456.258 699.094 457.605 699.32 458.952Z" fill="#FFFFFF" fill-rule="evenodd"/><path d="M705.163 425.543C704.512 425 703.558 425.181 703.07 425.905 701.488 428.362 701.488 428.362 701.488 428.362 701 429.112 701.14 430.147 701.814 430.69 702.07 430.897 702.395 431 702.698 431 703.163 431 703.628 430.767 703.907 430.328 705.512 427.871 705.512 427.871 705.512 427.871 706 427.147 705.837 426.086 705.163 425.543Z" fill="#FFFFFF" fill-rule="evenodd"/><path d="M671.512 428.336C669.93 425.905 669.93 425.905 669.93 425.905 669.442 425.155 668.488 425 667.814 425.543 667.14 426.086 667 427.121 667.488 427.871 669.093 430.302 669.093 430.302 669.093 430.302 669.372 430.767 669.837 431 670.302 431 670.605 431 670.907 430.897 671.186 430.69 671.86 430.147 672 429.086 671.512 428.336Z" fill="#FFFFFF" fill-rule="evenodd"/><path d="M661.742 460.503C661.484 459.52 660.617 459 659.844 459.318 657.242 460.358 657.242 460.358 657.242 460.358 656.445 460.676 656 461.717 656.258 462.699 656.469 463.48 657.055 464 657.711 464 657.852 464 658.016 463.971 658.18 463.884 660.758 462.844 660.758 462.844 660.758 462.844 661.555 462.526 662 461.486 661.742 460.503Z" fill="#FFFFFF" fill-rule="evenodd"/><path d="M686.5 479C685.669 479 685 479.707 685 480.585 685 483.415 685 483.415 685 483.415 685 484.293 685.669 485 686.5 485 687.331 485 688 484.293 688 483.415 688 480.585 688 480.585 688 480.585 688 479.707 687.331 479 686.5 479Z" fill="#FFFFFF" fill-rule="evenodd"/><path d="M715.758 460.358C713.156 459.318 713.156 459.318 713.156 459.318 712.383 459 711.516 459.52 711.258 460.503 711 461.486 711.445 462.526 712.242 462.844 714.82 463.913 714.82 463.913 714.82 463.913 714.984 463.971 715.148 464 715.289 464 715.945 464 716.531 463.48 716.742 462.699 717 461.717 716.555 460.676 715.758 460.358Z" fill="#FFFFFF" fill-rule="evenodd"/><path d="M864.672 290C813.328 290 813.328 290 813.328 290 810.422 290 808 292.5 808 295.5 808 336.5 808 336.5 808 336.5 808 339.5 810.422 342 813.328 342 828.828 342 828.828 342 828.828 342 828.344 343 826.891 344.5 826.406 345 825.438 345.5 824.953 346 824.953 346.5 824.469 347 823.984 348 824.469 349 824.953 350 825.922 351 828.344 351 849.656 351 849.656 351 849.656 351 852.078 351 853.047 350 853.531 349 854.016 348 854.016 347 853.531 346.5 853.047 346 852.562 345.5 852.078 345 851.109 344.5 850.141 343 849.172 342 864.672 342 864.672 342 864.672 342 867.578 342 870 339.5 870 336.5 870 295.5 870 295.5 870 295.5 870 292.5 867.578 290 864.672 290ZM850.625 346.5C851.109 347 851.594 347.5 851.594 348 851.594 348 852.078 348 851.594 348 851.594 348.5 850.625 349 849.656 349 828.344 349 828.344 349 828.344 349 827.375 349 826.406 348.5 826.406 348 826.406 348 826.406 348 826.406 348 826.406 348 826.406 348 826.406 348 826.406 347.5 826.891 347 827.375 346.5 829.312 344.5 830.766 343 831.25 342 846.75 342 846.75 342 846.75 342 847.719 343 848.688 344.5 850.625 346.5ZM866.125 336.5C866.125 337.5 865.641 338 864.672 338 813.328 338 813.328 338 813.328 338 812.359 338 811.875 337.5 811.875 336.5 811.875 295.5 811.875 295.5 811.875 295.5 811.875 294.5 812.359 294 813.328 294 864.672 294 864.672 294 864.672 294 865.641 294 866.125 294.5 866.125 295.5L866.125 336.5Z" fill="#FFFFFF" fill-rule="evenodd"/><path d="M858.646 298C819.354 298 819.354 298 819.354 298 817.438 298 816 299.5 816 301.5 816 326.5 816 326.5 816 326.5 816 328.5 817.438 330 819.354 330 858.646 330 858.646 330 858.646 330 860.562 330 862 328.5 862 326.5 862 301.5 862 301.5 862 301.5 862 299.5 860.562 298 858.646 298ZM860.083 326.5C860.083 327.5 859.604 328 858.646 328 819.354 328 819.354 328 819.354 328 818.396 328 817.917 327.5 817.917 326.5 817.917 301.5 817.917 301.5 817.917 301.5 817.917 300.5 818.396 300 819.354 300 858.646 300 858.646 300 858.646 300 859.604 300 860.083 300.5 860.083 301.5L860.083 326.5Z" fill="#FFFFFF" fill-rule="evenodd"/><path d="M839 331C837.5 331 836 332.5 836 334 836 335.5 837.5 337 839 337 840.5 337 842 335.5 842 334 842 332.5 840.5 331 839 331ZM839 335C838.5 335 838 334.5 838 334 838 333.5 838.5 333 839 333 839.5 333 840 333.5 840 334 840 334.5 839.5 335 839 335Z" fill="#FFFFFF" fill-rule="evenodd"/><path d="M828 315.268 836 319 836 317.024 830.462 314.171 836 312.195 836 310 828 313.732 828 315.268Z" fill="#FFFFFF" fill-rule="evenodd"/><path d="M840.5 309C840 309 840 309 839.5 309 839.5 309 839.5 309.478 839.5 309.957 837 318.565 837 318.565 837 318.565 837 319.043 837 319.522 837 319.522 837 320 837.5 320 838 320 838 320 838 320 838.5 320 838.5 320 838.5 319.522 838.5 319.522 838.5 319.522 838.5 319.043 839 319.043 841 310.435 841 310.435 841 310.435 841 309.957 841 309.478 841 309.478 841 309 841 309 841 309 841 309 840.5 309 840.5 309Z" fill="#FFFFFF" fill-rule="evenodd"/><path d="M842 312.195 846.789 314.171 842 317.024 842 319 849 315.268 849 313.732 842 310 842 312.195Z" fill="#FFFFFF" fill-rule="evenodd"/></g></svg>