<svg width="1280" height="720" xmlns="http://www.w3.org/2000/svg" xmlns:xlink="http://www.w3.org/1999/xlink" overflow="hidden"><defs><clipPath id="clip0"><rect x="0" y="0" width="1280" height="720"/></clipPath></defs><g clip-path="url(#clip0)"><rect x="0" y="0" width="1280" height="720" fill="#FFFFFF"/><rect x="0.500053" y="698.5" width="1280" height="22" stroke="#001F54" stroke-width="1.33333" stroke-miterlimit="8" fill="#001F54"/><rect x="0.500053" y="0.500053" width="44" height="18" stroke="#054990" stroke-width="1.33333" stroke-miterlimit="8" fill="#054990"/><text fill="#001F54" font-family="Arial,Arial_MSFontService,sans-serif" font-weight="700" font-size="37.3333" transform="translate(43.9999 73)">Case Study</text><text fill="#FFFFFF" font-family="Arial,Arial_MSFontService,sans-serif" font-weight="400" font-size="16" transform="translate(1226.07 705)">10</text><text fill="#FFFFFF" font-family="Arial,Arial_MSFontService,sans-serif" font-weight="400" font-size="16" transform="translate(1230.49 724)">0</text><path d="M843.5 144.5 843.5 629.517" stroke="#BFBFBF" stroke-width="0.666667" stroke-miterlimit="8" fill="none" fill-rule="evenodd"/><path d="M439.5 144.5 439.5 629.517" stroke="#BFBFBF" stroke-width="0.666667" stroke-miterlimit="8" fill="none" fill-rule="evenodd"/><rect x="451" y="144" width="379" height="46" fill="#054990"/><text fill="#FFFFFF" font-family="Arial,Arial_MSFontService,sans-serif" font-weight="700" font-size="21.3333" transform="translate(618.763 175)">Title</text><rect x="856" y="144" width="379" height="46" fill="#3F7CB2"/><text fill="#FFFFFF" font-family="Arial,Arial_MSFontService,sans-serif" font-weight="700" font-size="21.3333" transform="translate(1023.67 175)">Title</text><text font-family="Arial,Arial_MSFontService,sans-serif" font-weight="400" font-size="21.3333" transform="translate(875.647 224)">Insert</text><text font-family="Arial,Arial_MSFontService,sans-serif" font-weight="400" font-size="21.3333" transform="translate(934.76 224)">Text Here</text><rect x="47" y="144" width="379" height="46" fill="#001F54"/><text fill="#FFFFFF" font-family="Arial,Arial_MSFontService,sans-serif" font-weight="700" font-size="21.3333" transform="translate(214.626 175)">Title</text><text font-family="Arial,Arial_MSFontService,sans-serif" font-weight="400" font-size="21.3333" transform="translate(128.743 246)">Insert Text Here</text><path d="M83.5 206.256 81.4398 206.346 79.4155 206.544 77.4449 206.851 75.5102 207.302 73.6291 207.88 71.8019 208.529 70.0104 209.341 68.3086 210.225 66.6425 211.2 65.0481 212.319 63.5433 213.473 62.0922 214.755 60.7487 216.108 59.4767 217.552 58.2944 219.067 57.2016 220.655 56.2163 222.315 55.3206 224.03 54.5503 225.816 53.8695 227.639 53.2963 229.533 52.8484 231.464 52.5259 233.431 52.3289 235.452 52.2751 237.509 52.3289 239.548 52.5259 241.569 52.8484 243.536 53.2963 245.467 53.8695 247.361 54.5503 249.202 55.3206 250.97 56.2163 252.685 57.2016 254.345 58.2944 255.933 59.4767 257.448 60.7487 258.892 62.0922 260.245 63.5433 261.508 65.0481 262.699 66.6425 263.782 68.3086 264.793 70.0104 265.677 71.8019 266.471 73.6291 267.138 75.5102 267.698 77.4449 268.131 79.4155 268.474 81.4398 268.672 83.5 268.726 85.5423 268.672 87.5487 268.474 89.5372 268.131 91.454 267.698 93.3529 267.138 95.1981 266.471 96.9537 265.677 98.6735 264.793 100.34 263.782 101.934 262.699 103.439 261.508 104.872 260.245 106.233 258.892 107.505 257.448 108.706 255.933 109.78 254.345 110.784 252.685 111.679 250.97 112.45 249.202 113.13 247.361 113.686 245.467 114.134 243.536 114.456 241.569 114.671 239.548 114.725 237.509 114.671 235.452 114.456 233.431 114.134 231.464 113.686 229.533 113.13 227.639 112.45 225.816 111.679 224.03 110.784 222.315 109.78 220.655 108.706 219.067 107.505 217.552 106.233 216.108 104.872 214.755 103.439 213.473 101.934 212.319 100.34 211.2 98.6735 210.225 96.9537 209.341 95.1981 208.529 93.3529 207.88 91.454 207.302 89.5372 206.851 87.5487 206.544 85.5423 206.346 83.5 206.256ZM83.5 204 83.5 204 85.596 204.072 87.7099 204.271 89.7342 204.577 91.7406 205.029 93.6933 205.588 95.5922 206.256 97.4553 207.05 99.2289 207.934 100.967 208.908 102.633 210.027 104.227 211.182 105.732 212.463 107.165 213.816 108.526 215.26 109.798 216.794 110.999 218.382 112.074 220.042 113.077 221.756 113.972 223.56 114.743 225.401 115.406 227.296 115.979 229.281 116.427 231.266 116.749 233.305 116.928 235.38 117 237.509 116.928 239.602 116.749 241.695 116.427 243.752 115.979 245.737 115.406 247.704 114.743 249.617 113.972 251.458 113.077 253.244 112.074 254.958 110.999 256.636 109.798 258.224 108.526 259.74 107.165 261.184 105.732 262.537 104.227 263.818 102.633 264.991 100.967 266.074 99.2289 267.084 97.4553 267.969 95.5922 268.762 93.6933 269.412 91.7406 269.99 89.7342 270.405 87.7099 270.747 85.596 270.946 83.5 271 81.3682 270.946 79.2901 270.747 77.2658 270.405 75.2594 269.99 73.3067 269.412 71.4078 268.762 69.5446 267.969 67.7532 267.084 66.0334 266.074 64.3674 264.991 62.773 263.818 61.2503 262.537 59.7992 261.184 58.4556 259.74 57.1837 258.224 56.0013 256.636 54.9086 254.958 53.9233 253.244 53.0275 251.458 52.2572 249.617 51.5765 247.704 51.0211 245.737 50.5733 243.752 50.2508 241.695 50.0717 239.602 50 237.509 50.0717 235.38 50.2508 233.305 50.5733 231.266 51.0211 229.281 51.5765 227.296 52.2572 225.401 53.0275 223.56 53.9233 221.756 54.9086 220.042 56.0013 218.382 57.1837 216.794 58.4556 215.26 59.7992 213.816 61.2503 212.463 62.773 211.182 64.3674 210.027 66.0334 208.908 67.7532 207.934 69.5446 207.05 71.4078 206.256 73.3067 205.588 75.2594 205.029 77.2658 204.577 79.2901 204.271 81.3682 204.072 83.5 204Z" stroke="#195167" stroke-width="2" stroke-linejoin="round" stroke-miterlimit="10" fill="#054990" fill-rule="evenodd"/><path d="M93.5122 253C93.2927 253 93.0732 253 92.8537 252.805 90.2195 250.463 90.2195 250.463 90.2195 250.463 90 250.268 90 250.073 90 249.683 91.0976 246.366 91.0976 246.366 91.0976 246.366 91.0976 246.171 91.3171 245.976 91.5366 245.976 95.2683 245 95.2683 245 95.2683 245 95.4878 245 95.9268 245 96.1463 245.195 98.7805 247.732 98.7805 247.732 98.7805 247.732 98.7805 247.732 98.7805 247.732 98.7805 247.732 99 247.927 99 248.122 99 248.317 97.9024 251.634 97.9024 251.634 97.9024 251.634 97.9024 251.829 97.6829 252.024 97.4634 252.22 93.7317 253 93.7317 253 93.7317 253 93.7317 253 93.5122 253 93.5122 253ZM91.0976 249.878C93.5122 252.024 93.5122 252.024 93.5122 252.024 97.0244 251.244 97.0244 251.244 97.0244 251.244 97.9024 248.317 97.9024 248.317 97.9024 248.317 95.4878 245.976 95.4878 245.976 95.4878 245.976 91.9756 246.756 91.9756 246.756 91.9756 246.756L91.0976 249.878ZM97.0244 251.439C97.0244 251.439 97.0244 251.439 97.0244 251.439ZM91.0976 250.073C91.0976 250.073 91.0976 250.073 91.0976 250.073 91.0976 250.073 91.0976 250.073 91.0976 250.073ZM97.9024 248.122C97.9024 248.122 97.9024 248.122 97.9024 248.122ZM91.9756 246.756C91.9756 246.756 91.9756 246.756 91.9756 246.756 91.9756 246.756 91.9756 246.756 91.9756 246.756Z" fill="#001F54" fill-rule="evenodd"/><path d="M69.913 230C69.913 230 69.6956 230 69.4783 229.783 66.2174 226.522 66.2174 226.522 66.2174 226.522 66 226.304 66 225.87 66.2174 225.652 66.4348 225.435 66.8696 225.435 67.087 225.652 70.1304 228.913 70.1304 228.913 70.1304 228.913 73.8261 227.826 73.8261 227.826 73.8261 227.826 74.6956 224.13 74.6956 224.13 74.6956 224.13 71.6522 221.087 71.6522 221.087 71.6522 221.087 71.4348 220.87 71.4348 220.435 71.6522 220.217 71.8696 220 72.3043 220 72.5217 220.217 75.7826 223.696 75.7826 223.696 75.7826 223.696 75.7826 223.696 76 223.913 75.7826 224.13 74.6956 228.478 74.6956 228.478 74.6956 228.478 74.6956 228.696 74.4783 228.696 74.2609 228.696 70.1304 230 70.1304 230 70.1304 230 70.1304 230 69.913 230 69.913 230Z" fill="#001F54" fill-rule="evenodd"/><path d="M73.1176 234C71.3922 234 69.6667 233.2 68.3726 232 66.6471 230.6 66 228.6 66.2157 226.6 66.4314 226.2 66.6471 226 66.8627 226.2 67.2941 226.2 67.5098 226.4 67.2941 226.6 67.0784 228.4 67.7255 230.2 69.0196 231.4 70.9608 233.2 73.7647 233.4 76.1373 232.2 76.3529 232 76.7843 232.2 76.7843 232.4 77 232.6 77 232.8 76.7843 233 75.7059 233.6 74.4118 234 73.1176 234Z" fill="#001F54" fill-rule="evenodd"/><path d="M78.0714 231C77.8571 231 77.8571 231 77.6429 231 77.4286 230.784 77.4286 230.569 77.6429 230.137 78.9286 227.98 78.5 224.961 76.5714 223.02 75.2857 221.725 73.5714 221.078 71.6429 221.51 71.4286 221.51 71.2143 221.294 71 221.078 71 220.647 71.2143 220.431 71.4286 220.431 73.5714 220 75.9286 220.863 77.4286 222.373 79.5714 224.529 80 227.98 78.5 230.784 78.2857 231 78.2857 231 78.0714 231Z" fill="#001F54" fill-rule="evenodd"/><path d="M80.4231 238C80.4231 238 80.2308 238 80.0385 238 76.1923 232.96 76.1923 232.96 76.1923 232.96 76 232.72 76 232.48 76.1923 232.24 76.3846 232 76.7692 232 76.9615 232.24 80.8077 237.04 80.8077 237.04 80.8077 237.04 81 237.28 81 237.76 80.8077 238 80.6154 238 80.6154 238 80.4231 238Z" fill="#001F54" fill-rule="evenodd"/><path d="M89.3333 246C89.3333 246 89.1111 246 88.8889 246 84.2222 241.769 84.2222 241.769 84.2222 241.769 84 241.577 84 241.385 84.2222 241.192 84.4444 241 84.8889 241 85.1111 241.192 89.7778 245.231 89.7778 245.231 89.7778 245.231 90 245.423 90 245.808 89.7778 246 89.5556 246 89.5556 246 89.3333 246Z" fill="#001F54" fill-rule="evenodd"/><path d="M91.5692 244C91.3538 244 91.1385 244 91.1385 243.785 78.2154 230.862 78.2154 230.862 78.2154 230.862 78 230.646 78 230.431 78.2154 230.215 78.4308 230 78.6462 230 78.8615 230.215 91.7846 243.138 91.7846 243.138 91.7846 243.138 92 243.354 92 243.569 91.7846 243.785 91.7846 244 91.5692 244 91.5692 244Z" fill="#001F54" fill-rule="evenodd"/><path d="M94.7273 256C92.9091 256 91.0909 255.164 89.7273 253.91 87.4545 251.821 87 248.478 88.5909 245.97 88.8182 245.761 89.0455 245.552 89.2727 245.761 89.7273 245.97 89.7273 246.179 89.5 246.388 88.1364 248.687 88.5909 251.403 90.6364 253.284 91.7727 254.328 93.1364 254.955 94.7273 254.955 96.5455 254.955 97.9091 254.328 99.0455 253.284 100.409 252.239 100.864 250.776 100.864 249.313 100.864 247.851 100.409 246.388 99.0455 245.343 97.2273 243.463 94.0455 243.045 91.7727 244.507 91.5455 244.507 91.0909 244.507 91.0909 244.299 90.8636 244.09 90.8636 243.672 91.0909 243.463 94.0455 242 97.6818 242.418 99.9545 244.507 101.318 245.761 102 247.433 102 249.313 102 250.985 101.318 252.657 99.9545 253.91 98.5909 255.164 96.7727 256 94.7273 256Z" fill="#001F54" fill-rule="evenodd"/><path d="M83.439 239C83.439 239 83.2195 238.783 83.2195 238.783 83 238.566 83 238.133 83.2195 237.916 100.122 221.217 100.122 221.217 100.122 221.217 100.341 221 100.561 221 100.78 221.217 101 221.434 101 221.867 100.78 222.084 83.8781 238.783 83.8781 238.783 83.8781 238.783 83.8781 238.783 83.6585 239 83.439 239Z" fill="#001F54" fill-rule="evenodd"/><path d="M71.85 255C71.175 255 70.725 254.795 70.5 254.59 66.9 251.308 66.9 251.308 66.9 251.308 66 250.692 66 249.462 66.9 248.846 77.025 239.615 77.025 239.615 77.025 239.615 77.25 239.205 77.7 239 78.375 239 78.825 239 79.275 239.205 79.725 239.615 83.325 242.897 83.325 242.897 83.325 242.897 84 243.513 84 244.744 83.325 245.359 73.2 254.59 73.2 254.59 73.2 254.59 72.75 254.795 72.3 255 71.85 255ZM78.375 240.026C78.15 240.026 77.925 240.231 77.7 240.436 67.575 249.462 67.575 249.462 67.575 249.462 67.35 249.872 67.35 250.282 67.575 250.692 71.175 253.769 71.175 253.769 71.175 253.769 71.4 254.179 72.075 254.179 72.3 253.769 82.425 244.744 82.425 244.744 82.425 244.744 82.875 244.333 82.875 243.923 82.425 243.513 79.05 240.436 79.05 240.436 79.05 240.436 78.825 240.231 78.6 240.026 78.375 240.026Z" fill="#001F54" fill-rule="evenodd"/><path d="M82.75 243C82.25 243 82 243 81.5 242.613 78.5 240.29 78.5 240.29 78.5 240.29 78.25 240.097 78 239.71 78 239.323 78 238.935 78.25 238.742 78.5 238.355 79.75 237.581 79.75 237.581 79.75 237.581 80 237.194 80.5 237 81 237 81.5 237 82 237.194 82.25 237.581 85.25 239.71 85.25 239.71 85.25 239.71 86 240.29 86 241.258 85.25 241.645 84 242.613 84 242.613 84 242.613 83.75 243 83.25 243 82.75 243ZM81 237.968C81 237.968 80.75 238.161 80.75 238.161 79.5 239.129 79.5 239.129 79.5 239.129 79.25 239.129 79.25 239.323 79.25 239.323 79.25 239.516 79.25 239.516 79.5 239.71 82.5 242.032 82.5 242.032 82.5 242.032 82.75 242.226 83 242.226 83.25 242.032 84 241.452 84 241.452 84 241.452 84 241.452 84 241.452 84 241.452 84.5 241.065 84.5 241.065 84.5 241.065 84.75 240.871 84.75 240.677 84.5 240.484 81.5 238.161 81.5 238.161 81.5 238.161 81.25 238.161 81.25 237.968 81 237.968Z" fill="#001F54" fill-rule="evenodd"/><path d="M98.8571 224C98.6429 224 98.4286 223.786 98.2143 223.786 98.2143 223.786 98.2143 223.786 98.2143 223.786 98 223.357 98 222.929 98.2143 222.714 99.7143 221.214 99.7143 221.214 99.7143 221.214 99.9286 221 100.357 221 100.786 221.214 100.786 221.429 101 221.643 101 221.643 101 221.857 100.786 222.071 100.786 222.286 99.2857 223.786 99.2857 223.786 99.2857 223.786 99.0714 223.786 98.8571 224 98.8571 224Z" fill="#001F54" fill-rule="evenodd"/><g><path d="M523 267 576 267 576 550 523 550ZM630 386 683 386 683 550 630 550ZM736 320 789 320 789 550 736 550Z" fill="#81A4CC"/></g><g><path d="M496.5 549.5 816.5 549.5" stroke="#000000" stroke-linejoin="round" stroke-miterlimit="10" fill="none" fill-rule="evenodd"/></g><g><text font-family="Arial,Arial_MSFontService,sans-serif" font-weight="400" font-size="16" transform="translate(473.927 554)">0</text></g><g><text font-family="Arial,Arial_MSFontService,sans-serif" font-weight="400" font-size="16" transform="translate(460.58 521)">0.5</text></g><g><text font-family="Arial,Arial_MSFontService,sans-serif" font-weight="400" font-size="16" transform="translate(473.927 489)">1</text></g><g><text font-family="Arial,Arial_MSFontService,sans-serif" font-weight="400" font-size="16" transform="translate(460.58 456)">1.5</text></g><g><text font-family="Arial,Arial_MSFontService,sans-serif" font-weight="400" font-size="16" transform="translate(473.927 423)">2</text></g><g><text font-family="Arial,Arial_MSFontService,sans-serif" font-weight="400" font-size="16" transform="translate(460.58 390)">2.5</text></g><g><text font-family="Arial,Arial_MSFontService,sans-serif" font-weight="400" font-size="16" transform="translate(473.927 357)">3</text></g><g><text font-family="Arial,Arial_MSFontService,sans-serif" font-weight="400" font-size="16" transform="translate(460.58 325)">3.5</text></g><g><text font-family="Arial,Arial_MSFontService,sans-serif" font-weight="400" font-size="16" transform="translate(473.927 292)">4</text></g><g><text font-family="Arial,Arial_MSFontService,sans-serif" font-weight="400" font-size="16" transform="translate(460.58 259)">4.5</text></g><g><text font-family="Arial,Arial_MSFontService,sans-serif" font-weight="400" font-size="16" transform="translate(473.927 226)">5</text></g><g><text font-family="Arial,Arial_MSFontService,sans-serif" font-weight="400" font-size="16" transform="translate(545.396 573)">1</text></g><g><text font-family="Arial,Arial_MSFontService,sans-serif" font-weight="400" font-size="16" transform="translate(651.898 573)">2</text></g><g><text font-family="Arial,Arial_MSFontService,sans-serif" font-weight="400" font-size="16" transform="translate(758.4 573)">3</text></g><g><rect x="585" y="595" width="8" height="8" fill="#81A4CC"/></g><g><text font-family="Arial,Arial_MSFontService,sans-serif" font-weight="400" font-size="16" transform="translate(596.519 603)">Insert text here</text></g><text font-family="Arial,Arial_MSFontService,sans-serif" font-weight="400" font-size="21.3333" transform="translate(128.743 348)">Insert Text Here</text><path d="M83.5 308.256 81.4398 308.346 79.4155 308.544 77.4449 308.851 75.5102 309.302 73.6291 309.88 71.8019 310.529 70.0104 311.341 68.3086 312.225 66.6425 313.2 65.0481 314.319 63.5433 315.473 62.0922 316.755 60.7487 318.108 59.4767 319.552 58.2944 321.067 57.2016 322.655 56.2163 324.315 55.3206 326.03 54.5503 327.816 53.8695 329.639 53.2963 331.533 52.8484 333.464 52.5259 335.431 52.3289 337.452 52.2751 339.509 52.3289 341.548 52.5259 343.569 52.8484 345.536 53.2963 347.467 53.8695 349.361 54.5503 351.202 55.3206 352.97 56.2163 354.685 57.2016 356.345 58.2944 357.933 59.4767 359.448 60.7487 360.892 62.0922 362.245 63.5433 363.508 65.0481 364.699 66.6425 365.782 68.3086 366.793 70.0104 367.677 71.8019 368.471 73.6291 369.138 75.5102 369.698 77.4449 370.131 79.4155 370.474 81.4398 370.672 83.5 370.726 85.5423 370.672 87.5487 370.474 89.5372 370.131 91.454 369.698 93.3529 369.138 95.1981 368.471 96.9537 367.677 98.6735 366.793 100.34 365.782 101.934 364.699 103.439 363.508 104.872 362.245 106.233 360.892 107.505 359.448 108.706 357.933 109.78 356.345 110.784 354.685 111.679 352.97 112.45 351.202 113.13 349.361 113.686 347.467 114.134 345.536 114.456 343.569 114.671 341.548 114.725 339.509 114.671 337.452 114.456 335.431 114.134 333.464 113.686 331.533 113.13 329.639 112.45 327.816 111.679 326.03 110.784 324.315 109.78 322.655 108.706 321.067 107.505 319.552 106.233 318.108 104.872 316.755 103.439 315.473 101.934 314.319 100.34 313.2 98.6735 312.225 96.9537 311.341 95.1981 310.529 93.3529 309.88 91.454 309.302 89.5372 308.851 87.5487 308.544 85.5423 308.346 83.5 308.256ZM83.5 306 83.5 306 85.596 306.072 87.7099 306.271 89.7342 306.577 91.7406 307.029 93.6933 307.588 95.5922 308.256 97.4553 309.05 99.2289 309.934 100.967 310.908 102.633 312.027 104.227 313.182 105.732 314.463 107.165 315.816 108.526 317.26 109.798 318.794 110.999 320.382 112.074 322.042 113.077 323.756 113.972 325.56 114.743 327.401 115.406 329.296 115.979 331.281 116.427 333.266 116.749 335.305 116.928 337.38 117 339.509 116.928 341.602 116.749 343.695 116.427 345.753 115.979 347.737 115.406 349.704 114.743 351.617 113.972 353.458 113.077 355.244 112.074 356.958 110.999 358.636 109.798 360.224 108.526 361.74 107.165 363.184 105.732 364.537 104.227 365.818 102.633 366.991 100.967 368.074 99.2289 369.084 97.4553 369.969 95.5922 370.762 93.6933 371.412 91.7406 371.99 89.7342 372.405 87.7099 372.747 85.596 372.946 83.5 373 81.3682 372.946 79.2901 372.747 77.2658 372.405 75.2594 371.99 73.3067 371.412 71.4078 370.762 69.5446 369.969 67.7532 369.084 66.0334 368.074 64.3674 366.991 62.773 365.818 61.2503 364.537 59.7992 363.184 58.4556 361.74 57.1837 360.224 56.0013 358.636 54.9086 356.958 53.9233 355.244 53.0275 353.458 52.2572 351.617 51.5765 349.704 51.0211 347.737 50.5733 345.753 50.2508 343.695 50.0717 341.602 50 339.509 50.0717 337.38 50.2508 335.305 50.5733 333.266 51.0211 331.281 51.5765 329.296 52.2572 327.401 53.0275 325.56 53.9233 323.756 54.9086 322.042 56.0013 320.382 57.1837 318.794 58.4556 317.26 59.7992 315.816 61.2503 314.463 62.773 313.182 64.3674 312.027 66.0334 310.908 67.7532 309.934 69.5446 309.05 71.4078 308.256 73.3067 307.588 75.2594 307.029 77.2658 306.577 79.2901 306.271 81.3682 306.072 83.5 306Z" stroke="#195167" stroke-width="2" stroke-linejoin="round" stroke-miterlimit="10" fill="#054990" fill-rule="evenodd"/><path d="M93.5122 355C93.2927 355 93.0732 355 92.8537 354.78 90.2195 352.146 90.2195 352.146 90.2195 352.146 90 351.927 90 351.707 90 351.268 91.0976 347.537 91.0976 347.537 91.0976 347.537 91.0976 347.317 91.3171 347.098 91.5366 347.098 95.2683 346 95.2683 346 95.2683 346 95.4878 346 95.9268 346 96.1463 346.22 98.7805 349.073 98.7805 349.073 98.7805 349.073 98.7805 349.073 98.7805 349.073 98.7805 349.073 99 349.293 99 349.512 99 349.732 97.9024 353.463 97.9024 353.463 97.9024 353.463 97.9024 353.683 97.6829 353.902 97.4634 354.122 93.7317 355 93.7317 355 93.7317 355 93.7317 355 93.5122 355 93.5122 355ZM91.0976 351.488C93.5122 353.902 93.5122 353.902 93.5122 353.902 97.0244 353.024 97.0244 353.024 97.0244 353.024 97.9024 349.732 97.9024 349.732 97.9024 349.732 95.4878 347.098 95.4878 347.098 95.4878 347.098 91.9756 347.976 91.9756 347.976 91.9756 347.976L91.0976 351.488ZM97.0244 353.244C97.0244 353.244 97.0244 353.244 97.0244 353.244ZM91.0976 351.707C91.0976 351.707 91.0976 351.707 91.0976 351.707 91.0976 351.707 91.0976 351.707 91.0976 351.707ZM97.9024 349.512C97.9024 349.512 97.9024 349.512 97.9024 349.512ZM91.9756 347.976C91.9756 347.976 91.9756 347.976 91.9756 347.976 91.9756 347.976 91.9756 347.976 91.9756 347.976Z" fill="#001F54" fill-rule="evenodd"/><path d="M69.913 332C69.913 332 69.6956 332 69.4783 331.783 66.2174 328.522 66.2174 328.522 66.2174 328.522 66 328.304 66 327.87 66.2174 327.652 66.4348 327.435 66.8696 327.435 67.087 327.652 70.1304 330.913 70.1304 330.913 70.1304 330.913 73.8261 329.826 73.8261 329.826 73.8261 329.826 74.6956 326.13 74.6956 326.13 74.6956 326.13 71.6522 323.087 71.6522 323.087 71.6522 323.087 71.4348 322.87 71.4348 322.435 71.6522 322.217 71.8696 322 72.3043 322 72.5217 322.217 75.7826 325.696 75.7826 325.696 75.7826 325.696 75.7826 325.696 76 325.913 75.7826 326.13 74.6956 330.478 74.6956 330.478 74.6956 330.478 74.6956 330.696 74.4783 330.696 74.2609 330.696 70.1304 332 70.1304 332 70.1304 332 70.1304 332 69.913 332 69.913 332Z" fill="#001F54" fill-rule="evenodd"/><path d="M73.1176 336C71.3922 336 69.6667 335.1 68.3726 333.75 66.6471 332.175 66 329.925 66.2157 327.675 66.4314 327.225 66.6471 327 66.8627 327.225 67.2941 327.225 67.5098 327.45 67.2941 327.675 67.0784 329.7 67.7255 331.725 69.0196 333.075 70.9608 335.1 73.7647 335.325 76.1373 333.975 76.3529 333.75 76.7843 333.975 76.7843 334.2 77 334.425 77 334.65 76.7843 334.875 75.7059 335.55 74.4118 336 73.1176 336Z" fill="#001F54" fill-rule="evenodd"/><path d="M78.0714 333C77.8571 333 77.8571 333 77.6429 333 77.4286 332.784 77.4286 332.569 77.6429 332.137 78.9286 329.98 78.5 326.961 76.5714 325.02 75.2857 323.725 73.5714 323.078 71.6429 323.51 71.4286 323.51 71.2143 323.294 71 323.078 71 322.647 71.2143 322.431 71.4286 322.431 73.5714 322 75.9286 322.863 77.4286 324.373 79.5714 326.529 80 329.98 78.5 332.784 78.2857 333 78.2857 333 78.0714 333Z" fill="#001F54" fill-rule="evenodd"/><path d="M80.4231 339C80.4231 339 80.2308 339 80.0385 339 76.1923 334.8 76.1923 334.8 76.1923 334.8 76 334.6 76 334.4 76.1923 334.2 76.3846 334 76.7692 334 76.9615 334.2 80.8077 338.2 80.8077 338.2 80.8077 338.2 81 338.4 81 338.8 80.8077 339 80.6154 339 80.6154 339 80.4231 339Z" fill="#001F54" fill-rule="evenodd"/><path d="M89.3333 348C89.3333 348 89.1111 348 88.8889 348 84.2222 342.923 84.2222 342.923 84.2222 342.923 84 342.692 84 342.462 84.2222 342.231 84.4444 342 84.8889 342 85.1111 342.231 89.7778 347.077 89.7778 347.077 89.7778 347.077 90 347.308 90 347.769 89.7778 348 89.5556 348 89.5556 348 89.3333 348Z" fill="#001F54" fill-rule="evenodd"/><path d="M91.5692 346C91.3538 346 91.1385 346 91.1385 345.785 78.2154 332.862 78.2154 332.862 78.2154 332.862 78 332.646 78 332.431 78.2154 332.215 78.4308 332 78.6462 332 78.8615 332.215 91.7846 345.138 91.7846 345.138 91.7846 345.138 92 345.354 92 345.569 91.7846 345.785 91.7846 346 91.5692 346 91.5692 346Z" fill="#001F54" fill-rule="evenodd"/><path d="M94.7273 358C92.9091 358 91.0909 357.104 89.7273 355.761 87.4545 353.522 87 349.94 88.5909 347.254 88.8182 347.03 89.0455 346.806 89.2727 347.03 89.7273 347.254 89.7273 347.478 89.5 347.701 88.1364 350.164 88.5909 353.075 90.6364 355.09 91.7727 356.209 93.1364 356.881 94.7273 356.881 96.5455 356.881 97.9091 356.209 99.0455 355.09 100.409 353.97 100.864 352.403 100.864 350.836 100.864 349.269 100.409 347.701 99.0455 346.582 97.2273 344.567 94.0455 344.119 91.7727 345.687 91.5455 345.687 91.0909 345.687 91.0909 345.463 90.8636 345.239 90.8636 344.791 91.0909 344.567 94.0455 343 97.6818 343.448 99.9545 345.687 101.318 347.03 102 348.821 102 350.836 102 352.627 101.318 354.418 99.9545 355.761 98.5909 357.104 96.7727 358 94.7273 358Z" fill="#001F54" fill-rule="evenodd"/><path d="M83.439 341C83.439 341 83.2195 340.783 83.2195 340.783 83 340.566 83 340.133 83.2195 339.916 100.122 323.217 100.122 323.217 100.122 323.217 100.341 323 100.561 323 100.78 323.217 101 323.434 101 323.867 100.78 324.084 83.8781 340.783 83.8781 340.783 83.8781 340.783 83.8781 340.783 83.6585 341 83.439 341Z" fill="#001F54" fill-rule="evenodd"/><path d="M71.85 357C71.175 357 70.725 356.782 70.5 356.564 66.9 353.077 66.9 353.077 66.9 353.077 66 352.423 66 351.115 66.9 350.462 77.025 340.654 77.025 340.654 77.025 340.654 77.25 340.218 77.7 340 78.375 340 78.825 340 79.275 340.218 79.725 340.654 83.325 344.141 83.325 344.141 83.325 344.141 84 344.795 84 346.103 83.325 346.756 73.2 356.564 73.2 356.564 73.2 356.564 72.75 356.782 72.3 357 71.85 357ZM78.375 341.09C78.15 341.09 77.925 341.308 77.7 341.526 67.575 351.115 67.575 351.115 67.575 351.115 67.35 351.551 67.35 351.987 67.575 352.423 71.175 355.692 71.175 355.692 71.175 355.692 71.4 356.128 72.075 356.128 72.3 355.692 82.425 346.103 82.425 346.103 82.425 346.103 82.875 345.667 82.875 345.231 82.425 344.795 79.05 341.526 79.05 341.526 79.05 341.526 78.825 341.308 78.6 341.09 78.375 341.09Z" fill="#001F54" fill-rule="evenodd"/><path d="M82.75 345C82.25 345 82 345 81.5 344.548 78.5 341.839 78.5 341.839 78.5 341.839 78.25 341.613 78 341.161 78 340.71 78 340.258 78.25 340.032 78.5 339.581 79.75 338.677 79.75 338.677 79.75 338.677 80 338.226 80.5 338 81 338 81.5 338 82 338.226 82.25 338.677 85.25 341.161 85.25 341.161 85.25 341.161 86 341.839 86 342.968 85.25 343.419 84 344.548 84 344.548 84 344.548 83.75 345 83.25 345 82.75 345ZM81 339.129C81 339.129 80.75 339.355 80.75 339.355 79.5 340.484 79.5 340.484 79.5 340.484 79.25 340.484 79.25 340.71 79.25 340.71 79.25 340.935 79.25 340.935 79.5 341.161 82.5 343.871 82.5 343.871 82.5 343.871 82.75 344.097 83 344.097 83.25 343.871 84 343.194 84 343.194 84 343.194 84 343.194 84 343.194 84 343.194 84.5 342.742 84.5 342.742 84.5 342.742 84.75 342.516 84.75 342.29 84.5 342.065 81.5 339.355 81.5 339.355 81.5 339.355 81.25 339.355 81.25 339.129 81 339.129Z" fill="#001F54" fill-rule="evenodd"/><path d="M98.8571 326C98.6429 326 98.4286 325.786 98.2143 325.786 98.2143 325.786 98.2143 325.786 98.2143 325.786 98 325.357 98 324.929 98.2143 324.714 99.7143 323.214 99.7143 323.214 99.7143 323.214 99.9286 323 100.357 323 100.786 323.214 100.786 323.429 101 323.643 101 323.643 101 323.857 100.786 324.071 100.786 324.286 99.2857 325.786 99.2857 325.786 99.2857 325.786 99.0714 325.786 98.8571 326 98.8571 326Z" fill="#001F54" fill-rule="evenodd"/><text font-family="Arial,Arial_MSFontService,sans-serif" font-weight="400" font-size="21.3333" transform="translate(128.743 457)">Insert Text Here</text><path d="M83.5 417.256 81.4398 417.346 79.4155 417.544 77.4449 417.851 75.5102 418.302 73.6291 418.88 71.8019 419.529 70.0104 420.341 68.3086 421.225 66.6425 422.2 65.0481 423.319 63.5433 424.473 62.0922 425.755 60.7487 427.108 59.4767 428.552 58.2944 430.067 57.2016 431.655 56.2163 433.315 55.3206 435.03 54.5503 436.816 53.8695 438.639 53.2963 440.533 52.8484 442.464 52.5259 444.431 52.3289 446.452 52.2751 448.509 52.3289 450.548 52.5259 452.569 52.8484 454.536 53.2963 456.467 53.8695 458.361 54.5503 460.202 55.3206 461.97 56.2163 463.685 57.2016 465.345 58.2944 466.933 59.4767 468.448 60.7487 469.892 62.0922 471.245 63.5433 472.508 65.0481 473.699 66.6425 474.782 68.3086 475.793 70.0104 476.677 71.8019 477.471 73.6291 478.138 75.5102 478.698 77.4449 479.131 79.4155 479.474 81.4398 479.672 83.5 479.726 85.5423 479.672 87.5487 479.474 89.5372 479.131 91.454 478.698 93.3529 478.138 95.1981 477.471 96.9537 476.677 98.6735 475.793 100.34 474.782 101.934 473.699 103.439 472.508 104.872 471.245 106.233 469.892 107.505 468.448 108.706 466.933 109.78 465.345 110.784 463.685 111.679 461.97 112.45 460.202 113.13 458.361 113.686 456.467 114.134 454.536 114.456 452.569 114.671 450.548 114.725 448.509 114.671 446.452 114.456 444.431 114.134 442.464 113.686 440.533 113.13 438.639 112.45 436.816 111.679 435.03 110.784 433.315 109.78 431.655 108.706 430.067 107.505 428.552 106.233 427.108 104.872 425.755 103.439 424.473 101.934 423.319 100.34 422.2 98.6735 421.225 96.9537 420.341 95.1981 419.529 93.3529 418.88 91.454 418.302 89.5372 417.851 87.5487 417.544 85.5423 417.346 83.5 417.256ZM83.5 415 83.5 415 85.596 415.072 87.7099 415.271 89.7342 415.577 91.7406 416.029 93.6933 416.588 95.5922 417.256 97.4553 418.05 99.2289 418.934 100.967 419.908 102.633 421.027 104.227 422.182 105.732 423.463 107.165 424.816 108.526 426.26 109.798 427.794 110.999 429.382 112.074 431.042 113.077 432.756 113.972 434.56 114.743 436.401 115.406 438.296 115.979 440.281 116.427 442.266 116.749 444.305 116.928 446.38 117 448.509 116.928 450.602 116.749 452.695 116.427 454.753 115.979 456.737 115.406 458.704 114.743 460.617 113.972 462.458 113.077 464.244 112.074 465.958 110.999 467.636 109.798 469.224 108.526 470.74 107.165 472.184 105.732 473.537 104.227 474.818 102.633 475.991 100.967 477.074 99.2289 478.084 97.4553 478.969 95.5922 479.762 93.6933 480.412 91.7406 480.99 89.7342 481.405 87.7099 481.747 85.596 481.946 83.5 482 81.3682 481.946 79.2901 481.747 77.2658 481.405 75.2594 480.99 73.3067 480.412 71.4078 479.762 69.5446 478.969 67.7532 478.084 66.0334 477.074 64.3674 475.991 62.773 474.818 61.2503 473.537 59.7992 472.184 58.4556 470.74 57.1837 469.224 56.0013 467.636 54.9086 465.958 53.9233 464.244 53.0275 462.458 52.2572 460.617 51.5765 458.704 51.0211 456.737 50.5733 454.753 50.2508 452.695 50.0717 450.602 50 448.509 50.0717 446.38 50.2508 444.305 50.5733 442.266 51.0211 440.281 51.5765 438.296 52.2572 436.401 53.0275 434.56 53.9233 432.756 54.9086 431.042 56.0013 429.382 57.1837 427.794 58.4556 426.26 59.7992 424.816 61.2503 423.463 62.773 422.182 64.3674 421.027 66.0334 419.908 67.7532 418.934 69.5446 418.05 71.4078 417.256 73.3067 416.588 75.2594 416.029 77.2658 415.577 79.2901 415.271 81.3682 415.072 83.5 415Z" stroke="#195167" stroke-width="2" stroke-linejoin="round" stroke-miterlimit="10" fill="#054990" fill-rule="evenodd"/><path d="M93.5122 464C93.2927 464 93.0732 464 92.8537 463.78 90.2195 461.146 90.2195 461.146 90.2195 461.146 90 460.927 90 460.707 90 460.268 91.0976 456.537 91.0976 456.537 91.0976 456.537 91.0976 456.317 91.3171 456.098 91.5366 456.098 95.2683 455 95.2683 455 95.2683 455 95.4878 455 95.9268 455 96.1463 455.22 98.7805 458.073 98.7805 458.073 98.7805 458.073 98.7805 458.073 98.7805 458.073 98.7805 458.073 99 458.293 99 458.512 99 458.732 97.9024 462.463 97.9024 462.463 97.9024 462.463 97.9024 462.683 97.6829 462.902 97.4634 463.122 93.7317 464 93.7317 464 93.7317 464 93.7317 464 93.5122 464 93.5122 464ZM91.0976 460.488C93.5122 462.902 93.5122 462.902 93.5122 462.902 97.0244 462.024 97.0244 462.024 97.0244 462.024 97.9024 458.732 97.9024 458.732 97.9024 458.732 95.4878 456.098 95.4878 456.098 95.4878 456.098 91.9756 456.976 91.9756 456.976 91.9756 456.976L91.0976 460.488ZM97.0244 462.244C97.0244 462.244 97.0244 462.244 97.0244 462.244ZM91.0976 460.707C91.0976 460.707 91.0976 460.707 91.0976 460.707 91.0976 460.707 91.0976 460.707 91.0976 460.707ZM97.9024 458.512C97.9024 458.512 97.9024 458.512 97.9024 458.512ZM91.9756 456.976C91.9756 456.976 91.9756 456.976 91.9756 456.976 91.9756 456.976 91.9756 456.976 91.9756 456.976Z" fill="#001F54" fill-rule="evenodd"/><path d="M69.913 441C69.913 441 69.6956 441 69.4783 440.783 66.2174 437.522 66.2174 437.522 66.2174 437.522 66 437.304 66 436.87 66.2174 436.652 66.4348 436.435 66.8696 436.435 67.087 436.652 70.1304 439.913 70.1304 439.913 70.1304 439.913 73.8261 438.826 73.8261 438.826 73.8261 438.826 74.6956 435.13 74.6956 435.13 74.6956 435.13 71.6522 432.087 71.6522 432.087 71.6522 432.087 71.4348 431.87 71.4348 431.435 71.6522 431.217 71.8696 431 72.3043 431 72.5217 431.217 75.7826 434.696 75.7826 434.696 75.7826 434.696 75.7826 434.696 76 434.913 75.7826 435.13 74.6956 439.478 74.6956 439.478 74.6956 439.478 74.6956 439.696 74.4783 439.696 74.2609 439.696 70.1304 441 70.1304 441 70.1304 441 70.1304 441 69.913 441 69.913 441Z" fill="#001F54" fill-rule="evenodd"/><path d="M73.1176 445C71.3922 445 69.6667 444.1 68.3726 442.75 66.6471 441.175 66 438.925 66.2157 436.675 66.4314 436.225 66.6471 436 66.8627 436.225 67.2941 436.225 67.5098 436.45 67.2941 436.675 67.0784 438.7 67.7255 440.725 69.0196 442.075 70.9608 444.1 73.7647 444.325 76.1373 442.975 76.3529 442.75 76.7843 442.975 76.7843 443.2 77 443.425 77 443.65 76.7843 443.875 75.7059 444.55 74.4118 445 73.1176 445Z" fill="#001F54" fill-rule="evenodd"/><path d="M78.0714 442C77.8571 442 77.8571 442 77.6429 442 77.4286 441.784 77.4286 441.569 77.6429 441.137 78.9286 438.98 78.5 435.961 76.5714 434.02 75.2857 432.725 73.5714 432.078 71.6429 432.51 71.4286 432.51 71.2143 432.294 71 432.078 71 431.647 71.2143 431.431 71.4286 431.431 73.5714 431 75.9286 431.863 77.4286 433.373 79.5714 435.529 80 438.98 78.5 441.784 78.2857 442 78.2857 442 78.0714 442Z" fill="#001F54" fill-rule="evenodd"/><path d="M80.4231 448C80.4231 448 80.2308 448 80.0385 448 76.1923 443.8 76.1923 443.8 76.1923 443.8 76 443.6 76 443.4 76.1923 443.2 76.3846 443 76.7692 443 76.9615 443.2 80.8077 447.2 80.8077 447.2 80.8077 447.2 81 447.4 81 447.8 80.8077 448 80.6154 448 80.6154 448 80.4231 448Z" fill="#001F54" fill-rule="evenodd"/><path d="M89.3333 457C89.3333 457 89.1111 457 88.8889 457 84.2222 451.923 84.2222 451.923 84.2222 451.923 84 451.692 84 451.462 84.2222 451.231 84.4444 451 84.8889 451 85.1111 451.231 89.7778 456.077 89.7778 456.077 89.7778 456.077 90 456.308 90 456.769 89.7778 457 89.5556 457 89.5556 457 89.3333 457Z" fill="#001F54" fill-rule="evenodd"/><path d="M91.5692 455C91.3538 455 91.1385 455 91.1385 454.785 78.2154 441.862 78.2154 441.862 78.2154 441.862 78 441.646 78 441.431 78.2154 441.215 78.4308 441 78.6462 441 78.8615 441.215 91.7846 454.138 91.7846 454.138 91.7846 454.138 92 454.354 92 454.569 91.7846 454.785 91.7846 455 91.5692 455 91.5692 455Z" fill="#001F54" fill-rule="evenodd"/><path d="M94.7273 467C92.9091 467 91.0909 466.104 89.7273 464.761 87.4545 462.522 87 458.94 88.5909 456.254 88.8182 456.03 89.0455 455.806 89.2727 456.03 89.7273 456.254 89.7273 456.478 89.5 456.701 88.1364 459.164 88.5909 462.075 90.6364 464.09 91.7727 465.209 93.1364 465.881 94.7273 465.881 96.5455 465.881 97.9091 465.209 99.0455 464.09 100.409 462.97 100.864 461.403 100.864 459.836 100.864 458.269 100.409 456.701 99.0455 455.582 97.2273 453.567 94.0455 453.119 91.7727 454.687 91.5455 454.687 91.0909 454.687 91.0909 454.463 90.8636 454.239 90.8636 453.791 91.0909 453.567 94.0455 452 97.6818 452.448 99.9545 454.687 101.318 456.03 102 457.821 102 459.836 102 461.627 101.318 463.418 99.9545 464.761 98.5909 466.104 96.7727 467 94.7273 467Z" fill="#001F54" fill-rule="evenodd"/><path d="M83.439 450C83.439 450 83.2195 449.783 83.2195 449.783 83 449.566 83 449.133 83.2195 448.916 100.122 432.217 100.122 432.217 100.122 432.217 100.341 432 100.561 432 100.78 432.217 101 432.434 101 432.867 100.78 433.084 83.8781 449.783 83.8781 449.783 83.8781 449.783 83.8781 449.783 83.6585 450 83.439 450Z" fill="#001F54" fill-rule="evenodd"/><path d="M71.85 466C71.175 466 70.725 465.782 70.5 465.564 66.9 462.077 66.9 462.077 66.9 462.077 66 461.423 66 460.115 66.9 459.462 77.025 449.654 77.025 449.654 77.025 449.654 77.25 449.218 77.7 449 78.375 449 78.825 449 79.275 449.218 79.725 449.654 83.325 453.141 83.325 453.141 83.325 453.141 84 453.795 84 455.103 83.325 455.756 73.2 465.564 73.2 465.564 73.2 465.564 72.75 465.782 72.3 466 71.85 466ZM78.375 450.09C78.15 450.09 77.925 450.308 77.7 450.526 67.575 460.115 67.575 460.115 67.575 460.115 67.35 460.551 67.35 460.987 67.575 461.423 71.175 464.692 71.175 464.692 71.175 464.692 71.4 465.128 72.075 465.128 72.3 464.692 82.425 455.103 82.425 455.103 82.425 455.103 82.875 454.667 82.875 454.231 82.425 453.795 79.05 450.526 79.05 450.526 79.05 450.526 78.825 450.308 78.6 450.09 78.375 450.09Z" fill="#001F54" fill-rule="evenodd"/><path d="M82.75 454C82.25 454 82 454 81.5 453.548 78.5 450.839 78.5 450.839 78.5 450.839 78.25 450.613 78 450.161 78 449.71 78 449.258 78.25 449.032 78.5 448.581 79.75 447.677 79.75 447.677 79.75 447.677 80 447.226 80.5 447 81 447 81.5 447 82 447.226 82.25 447.677 85.25 450.161 85.25 450.161 85.25 450.161 86 450.839 86 451.968 85.25 452.419 84 453.548 84 453.548 84 453.548 83.75 454 83.25 454 82.75 454ZM81 448.129C81 448.129 80.75 448.355 80.75 448.355 79.5 449.484 79.5 449.484 79.5 449.484 79.25 449.484 79.25 449.71 79.25 449.71 79.25 449.935 79.25 449.935 79.5 450.161 82.5 452.871 82.5 452.871 82.5 452.871 82.75 453.097 83 453.097 83.25 452.871 84 452.194 84 452.194 84 452.194 84 452.194 84 452.194 84 452.194 84.5 451.742 84.5 451.742 84.5 451.742 84.75 451.516 84.75 451.29 84.5 451.065 81.5 448.355 81.5 448.355 81.5 448.355 81.25 448.355 81.25 448.129 81 448.129Z" fill="#001F54" fill-rule="evenodd"/><path d="M98.8571 435C98.6429 435 98.4286 434.786 98.2143 434.786 98.2143 434.786 98.2143 434.786 98.2143 434.786 98 434.357 98 433.929 98.2143 433.714 99.7143 432.214 99.7143 432.214 99.7143 432.214 99.9286 432 100.357 432 100.786 432.214 100.786 432.429 101 432.643 101 432.643 101 432.857 100.786 433.071 100.786 433.286 99.2857 434.786 99.2857 434.786 99.2857 434.786 99.0714 434.786 98.8571 435 98.8571 435Z" fill="#001F54" fill-rule="evenodd"/><text font-family="Arial,Arial_MSFontService,sans-serif" font-weight="400" font-size="21.3333" transform="translate(128.743 560)">Insert Text Here</text><path d="M83.5 521.256 81.4398 521.346 79.4155 521.544 77.4449 521.851 75.5102 522.302 73.6291 522.88 71.8019 523.529 70.0104 524.341 68.3086 525.225 66.6425 526.2 65.0481 527.319 63.5433 528.473 62.0922 529.755 60.7487 531.108 59.4767 532.552 58.2944 534.067 57.2016 535.655 56.2163 537.315 55.3206 539.03 54.5503 540.816 53.8695 542.639 53.2963 544.533 52.8484 546.464 52.5259 548.431 52.3289 550.452 52.2751 552.509 52.3289 554.548 52.5259 556.569 52.8484 558.536 53.2963 560.467 53.8695 562.361 54.5503 564.202 55.3206 565.97 56.2163 567.685 57.2016 569.345 58.2944 570.933 59.4767 572.448 60.7487 573.892 62.0922 575.245 63.5433 576.508 65.0481 577.699 66.6425 578.782 68.3086 579.793 70.0104 580.677 71.8019 581.471 73.6291 582.138 75.5102 582.698 77.4449 583.131 79.4155 583.474 81.4398 583.672 83.5 583.726 85.5423 583.672 87.5487 583.474 89.5372 583.131 91.454 582.698 93.3529 582.138 95.1981 581.471 96.9537 580.677 98.6735 579.793 100.34 578.782 101.934 577.699 103.439 576.508 104.872 575.245 106.233 573.892 107.505 572.448 108.706 570.933 109.78 569.345 110.784 567.685 111.679 565.97 112.45 564.202 113.13 562.361 113.686 560.467 114.134 558.536 114.456 556.569 114.671 554.548 114.725 552.509 114.671 550.452 114.456 548.431 114.134 546.464 113.686 544.533 113.13 542.639 112.45 540.816 111.679 539.03 110.784 537.315 109.78 535.655 108.706 534.067 107.505 532.552 106.233 531.108 104.872 529.755 103.439 528.473 101.934 527.319 100.34 526.2 98.6735 525.225 96.9537 524.341 95.1981 523.529 93.3529 522.88 91.454 522.302 89.5372 521.851 87.5487 521.544 85.5423 521.346 83.5 521.256ZM83.5 519 83.5 519 85.596 519.072 87.7099 519.271 89.7342 519.577 91.7406 520.029 93.6933 520.588 95.5922 521.256 97.4553 522.05 99.2289 522.934 100.967 523.908 102.633 525.027 104.227 526.182 105.732 527.463 107.165 528.816 108.526 530.26 109.798 531.794 110.999 533.382 112.074 535.042 113.077 536.756 113.972 538.56 114.743 540.401 115.406 542.296 115.979 544.281 116.427 546.266 116.749 548.305 116.928 550.38 117 552.509 116.928 554.602 116.749 556.695 116.427 558.753 115.979 560.737 115.406 562.704 114.743 564.617 113.972 566.458 113.077 568.244 112.074 569.958 110.999 571.636 109.798 573.224 108.526 574.74 107.165 576.184 105.732 577.537 104.227 578.818 102.633 579.991 100.967 581.074 99.2289 582.084 97.4553 582.969 95.5922 583.762 93.6933 584.412 91.7406 584.99 89.7342 585.405 87.7099 585.747 85.596 585.946 83.5 586 81.3682 585.946 79.2901 585.747 77.2658 585.405 75.2594 584.99 73.3067 584.412 71.4078 583.762 69.5446 582.969 67.7532 582.084 66.0334 581.074 64.3674 579.991 62.773 578.818 61.2503 577.537 59.7992 576.184 58.4556 574.74 57.1837 573.224 56.0013 571.636 54.9086 569.958 53.9233 568.244 53.0275 566.458 52.2572 564.617 51.5765 562.704 51.0211 560.737 50.5733 558.753 50.2508 556.695 50.0717 554.602 50 552.509 50.0717 550.38 50.2508 548.305 50.5733 546.266 51.0211 544.281 51.5765 542.296 52.2572 540.401 53.0275 538.56 53.9233 536.756 54.9086 535.042 56.0013 533.382 57.1837 531.794 58.4556 530.26 59.7992 528.816 61.2503 527.463 62.773 526.182 64.3674 525.027 66.0334 523.908 67.7532 522.934 69.5446 522.05 71.4078 521.256 73.3067 520.588 75.2594 520.029 77.2658 519.577 79.2901 519.271 81.3682 519.072 83.5 519Z" stroke="#195167" stroke-width="2" stroke-linejoin="round" stroke-miterlimit="10" fill="#054990" fill-rule="evenodd"/><path d="M93.5122 568C93.2927 568 93.0732 568 92.8537 567.781 90.2195 565.146 90.2195 565.146 90.2195 565.146 90 564.927 90 564.707 90 564.268 91.0976 560.537 91.0976 560.537 91.0976 560.537 91.0976 560.317 91.3171 560.098 91.5366 560.098 95.2683 559 95.2683 559 95.2683 559 95.4878 559 95.9268 559 96.1463 559.219 98.7805 562.073 98.7805 562.073 98.7805 562.073 98.7805 562.073 98.7805 562.073 98.7805 562.073 99 562.293 99 562.512 99 562.732 97.9024 566.463 97.9024 566.463 97.9024 566.463 97.9024 566.683 97.6829 566.902 97.4634 567.122 93.7317 568 93.7317 568 93.7317 568 93.7317 568 93.5122 568 93.5122 568ZM91.0976 564.488C93.5122 566.902 93.5122 566.902 93.5122 566.902 97.0244 566.024 97.0244 566.024 97.0244 566.024 97.9024 562.732 97.9024 562.732 97.9024 562.732 95.4878 560.098 95.4878 560.098 95.4878 560.098 91.9756 560.976 91.9756 560.976 91.9756 560.976L91.0976 564.488ZM97.0244 566.244C97.0244 566.244 97.0244 566.244 97.0244 566.244ZM91.0976 564.707C91.0976 564.707 91.0976 564.707 91.0976 564.707 91.0976 564.707 91.0976 564.707 91.0976 564.707ZM97.9024 562.512C97.9024 562.512 97.9024 562.512 97.9024 562.512ZM91.9756 560.976C91.9756 560.976 91.9756 560.976 91.9756 560.976 91.9756 560.976 91.9756 560.976 91.9756 560.976Z" fill="#001F54" fill-rule="evenodd"/><path d="M69.913 544C69.913 544 69.6956 544 69.4783 543.804 66.2174 540.87 66.2174 540.87 66.2174 540.87 66 540.674 66 540.283 66.2174 540.087 66.4348 539.891 66.8696 539.891 67.087 540.087 70.1304 543.022 70.1304 543.022 70.1304 543.022 73.8261 542.043 73.8261 542.043 73.8261 542.043 74.6956 538.717 74.6956 538.717 74.6956 538.717 71.6522 535.978 71.6522 535.978 71.6522 535.978 71.4348 535.783 71.4348 535.391 71.6522 535.196 71.8696 535 72.3043 535 72.5217 535.196 75.7826 538.326 75.7826 538.326 75.7826 538.326 75.7826 538.326 76 538.522 75.7826 538.717 74.6956 542.63 74.6956 542.63 74.6956 542.63 74.6956 542.826 74.4783 542.826 74.2609 542.826 70.1304 544 70.1304 544 70.1304 544 70.1304 544 69.913 544 69.913 544Z" fill="#001F54" fill-rule="evenodd"/><path d="M73.1176 548C71.3922 548 69.6667 547.2 68.3726 546 66.6471 544.6 66 542.6 66.2157 540.6 66.4314 540.2 66.6471 540 66.8627 540.2 67.2941 540.2 67.5098 540.4 67.2941 540.6 67.0784 542.4 67.7255 544.2 69.0196 545.4 70.9608 547.2 73.7647 547.4 76.1373 546.2 76.3529 546 76.7843 546.2 76.7843 546.4 77 546.6 77 546.8 76.7843 547 75.7059 547.6 74.4118 548 73.1176 548Z" fill="#001F54" fill-rule="evenodd"/><path d="M78.0714 545C77.8571 545 77.8571 545 77.6429 545 77.4286 544.784 77.4286 544.569 77.6429 544.137 78.9286 541.98 78.5 538.961 76.5714 537.02 75.2857 535.725 73.5714 535.078 71.6429 535.51 71.4286 535.51 71.2143 535.294 71 535.078 71 534.647 71.2143 534.431 71.4286 534.431 73.5714 534 75.9286 534.863 77.4286 536.373 79.5714 538.529 80 541.98 78.5 544.784 78.2857 545 78.2857 545 78.0714 545Z" fill="#001F54" fill-rule="evenodd"/><path d="M80.4231 552C80.4231 552 80.2308 552 80.0385 552 76.1923 547.8 76.1923 547.8 76.1923 547.8 76 547.6 76 547.4 76.1923 547.2 76.3846 547 76.7692 547 76.9615 547.2 80.8077 551.2 80.8077 551.2 80.8077 551.2 81 551.4 81 551.8 80.8077 552 80.6154 552 80.6154 552 80.4231 552Z" fill="#001F54" fill-rule="evenodd"/><path d="M89.3333 561C89.3333 561 89.1111 561 88.8889 561 84.2222 555.923 84.2222 555.923 84.2222 555.923 84 555.692 84 555.462 84.2222 555.231 84.4444 555 84.8889 555 85.1111 555.231 89.7778 560.077 89.7778 560.077 89.7778 560.077 90 560.308 90 560.769 89.7778 561 89.5556 561 89.5556 561 89.3333 561Z" fill="#001F54" fill-rule="evenodd"/><path d="M91.5692 558C91.3538 558 91.1385 558 91.1385 557.785 78.2154 544.862 78.2154 544.862 78.2154 544.862 78 544.646 78 544.431 78.2154 544.215 78.4308 544 78.6462 544 78.8615 544.215 91.7846 557.138 91.7846 557.138 91.7846 557.138 92 557.354 92 557.569 91.7846 557.785 91.7846 558 91.5692 558 91.5692 558Z" fill="#001F54" fill-rule="evenodd"/><path d="M94.7273 570C92.9091 570 91.0909 569.164 89.7273 567.91 87.4545 565.821 87 562.478 88.5909 559.97 88.8182 559.761 89.0455 559.552 89.2727 559.761 89.7273 559.97 89.7273 560.179 89.5 560.388 88.1364 562.687 88.5909 565.403 90.6364 567.284 91.7727 568.328 93.1364 568.955 94.7273 568.955 96.5455 568.955 97.9091 568.328 99.0455 567.284 100.409 566.239 100.864 564.776 100.864 563.313 100.864 561.851 100.409 560.388 99.0455 559.343 97.2273 557.463 94.0455 557.045 91.7727 558.507 91.5455 558.507 91.0909 558.507 91.0909 558.299 90.8636 558.09 90.8636 557.672 91.0909 557.463 94.0455 556 97.6818 556.418 99.9545 558.507 101.318 559.761 102 561.433 102 563.313 102 564.985 101.318 566.657 99.9545 567.91 98.5909 569.164 96.7727 570 94.7273 570Z" fill="#001F54" fill-rule="evenodd"/><path d="M83.439 554C83.439 554 83.2195 553.783 83.2195 553.783 83 553.566 83 553.133 83.2195 552.916 100.122 536.217 100.122 536.217 100.122 536.217 100.341 536 100.561 536 100.78 536.217 101 536.434 101 536.867 100.78 537.084 83.8781 553.783 83.8781 553.783 83.8781 553.783 83.8781 553.783 83.6585 554 83.439 554Z" fill="#001F54" fill-rule="evenodd"/><path d="M71.85 570C71.175 570 70.725 569.782 70.5 569.564 66.9 566.077 66.9 566.077 66.9 566.077 66 565.423 66 564.115 66.9 563.462 77.025 553.654 77.025 553.654 77.025 553.654 77.25 553.218 77.7 553 78.375 553 78.825 553 79.275 553.218 79.725 553.654 83.325 557.141 83.325 557.141 83.325 557.141 84 557.795 84 559.103 83.325 559.756 73.2 569.564 73.2 569.564 73.2 569.564 72.75 569.782 72.3 570 71.85 570ZM78.375 554.09C78.15 554.09 77.925 554.308 77.7 554.526 67.575 564.115 67.575 564.115 67.575 564.115 67.35 564.551 67.35 564.987 67.575 565.423 71.175 568.692 71.175 568.692 71.175 568.692 71.4 569.128 72.075 569.128 72.3 568.692 82.425 559.103 82.425 559.103 82.425 559.103 82.875 558.667 82.875 558.231 82.425 557.795 79.05 554.526 79.05 554.526 79.05 554.526 78.825 554.308 78.6 554.09 78.375 554.09Z" fill="#001F54" fill-rule="evenodd"/><path d="M82.75 558C82.25 558 82 558 81.5 557.548 78.5 554.839 78.5 554.839 78.5 554.839 78.25 554.613 78 554.161 78 553.71 78 553.258 78.25 553.032 78.5 552.581 79.75 551.677 79.75 551.677 79.75 551.677 80 551.226 80.5 551 81 551 81.5 551 82 551.226 82.25 551.677 85.25 554.161 85.25 554.161 85.25 554.161 86 554.839 86 555.968 85.25 556.419 84 557.548 84 557.548 84 557.548 83.75 558 83.25 558 82.75 558ZM81 552.129C81 552.129 80.75 552.355 80.75 552.355 79.5 553.484 79.5 553.484 79.5 553.484 79.25 553.484 79.25 553.71 79.25 553.71 79.25 553.935 79.25 553.935 79.5 554.161 82.5 556.871 82.5 556.871 82.5 556.871 82.75 557.097 83 557.097 83.25 556.871 84 556.194 84 556.194 84 556.194 84 556.194 84 556.194 84 556.194 84.5 555.742 84.5 555.742 84.5 555.742 84.75 555.516 84.75 555.29 84.5 555.065 81.5 552.355 81.5 552.355 81.5 552.355 81.25 552.355 81.25 552.129 81 552.129Z" fill="#001F54" fill-rule="evenodd"/><path d="M98.8571 539C98.6429 539 98.4286 538.786 98.2143 538.786 98.2143 538.786 98.2143 538.786 98.2143 538.786 98 538.357 98 537.929 98.2143 537.714 99.7143 536.214 99.7143 536.214 99.7143 536.214 99.9286 536 100.357 536 100.786 536.214 100.786 536.429 101 536.643 101 536.643 101 536.857 100.786 537.071 100.786 537.286 99.2857 538.786 99.2857 538.786 99.2857 538.786 99.0714 538.786 98.8571 539 98.8571 539Z" fill="#001F54" fill-rule="evenodd"/></g></svg>